<svg xmlns="http://www.w3.org/2000/svg" viewBox="0 0 511.86 155.45"><defs><style>.cls-1{fill:#39342c;}.cls-2{fill:#a6a6a6;}.cls-3{fill:#9c6042;}.cls-4{fill:#080605;}.cls-5,.cls-7{fill:#625f5c;}.cls-6{fill:#fefefe;}.cls-7,.cls-8{stroke:#625f5c;stroke-miterlimit:10;stroke-width:0.25px;}.cls-8{fill:none;}</style></defs><g id="Calque_2" data-name="Calque 2"><g id="Calque_1-2" data-name="Calque 1"><g id="Calque_2-2" data-name="Calque 2"><g id="Calque_1-2-2" data-name="Calque 1-2"><path class="cls-1" d="M505.17,24.08a1.85,1.85,0,0,0,2.25,1.34l.33-.12c2.39-.76,3.34.51,4.11,2.34v4.78c-1.15,2.07-2.82,1.91-4.9,1.63a13.77,13.77,0,0,0-3.73.41c-2.92-.07-5.84-.12-8.76-.22a2.19,2.19,0,0,0-2.36,1.33c-2.8-1.51-6.05-1-8.9-1.15-11.81-.41-23.66,0-35.49.08-1.54-.73-3,.17-4.48.26-3.33-.17-6.67.39-10-.35-1.12-.24-1.81.47-2,1.59-.95,0-2.24.63-2.78-.37-1-1.94-2.1-.28-3.14-.24-.94-.84-2.07-.4-3.1-.4-10.47,0-20.94,0-31.4.08-.45-2.21-2.21-1.55-3.49-1.38-1.73.23-1.39,1.79-1.45,3a.49.49,0,0,1-.11.51,5.53,5.53,0,0,1-4.54,0,2.55,2.55,0,0,1,.81-3c2.51.52,3.67-.6,3.71-3.06,9.31-.24,18.61.12,27.93-.37,5-.27,10.24-1.48,15.44.41a15.38,15.38,0,0,0,4.62.72c4.33,0,8.62-1.65,13-.31,1.29.4,1.14-1.11,1.78-1.6,1.09,0,2.18.09,3.26.08l35.56-.19a84,84,0,0,0,14.79-.52c.62-.07,1.28-.15,1.26-.92s-.7-.88-1.32-.88c-2.87,0-5.75-.12-8.62,0-2,.09-4.13-.66-6,.59a7,7,0,0,1-3.48.44l-35.33.2c-.66-1.6-2.08-1.15-3.33-1.28-8.72-.87-17.32,1.89-26,1.11-11.16-1-22.32.23-33.47-.42.07-2.6,2.05-3.74,4.24-2.42a2.73,2.73,0,0,0,2,.46l31.59-.45c.67,0,1.43.15,1.87-.6,2.51-1.26,5.21-1.12,7.92-1.19,2.08-.06,4.32.8,6.25-.68,2.69.88,5.37,1.76,8.06,2.62a5.86,5.86,0,0,0,1.71.31q16.66-.18,33.32-.41c.65,0,1.44.21,1.79-.66a9.53,9.53,0,0,0,5.26.43,17.89,17.89,0,0,1,8.2-.05c1.64.36,3.66.11,4.66-1S504.36,24.31,505.17,24.08Z"/><path class="cls-2" d="M283.7,155.45c-3.26-3.31-7.11-5.93-10.6-9a148.34,148.34,0,0,1-16.47-16.69,155.51,155.51,0,0,1-21-32.49q-4.78-10.51-8.51-21.45C225.77,72.06,225.3,68,224.6,64c-.21-1.2-.44-1.91-1.78-1.66.28-1,.54-1.94,1.88-1.86s1.72.86,2,1.86c.14.47.2,1,.3,1.46C231,83,237.86,101,249.32,117.06A173.05,173.05,0,0,0,266,137.13c6.12,6.34,13,11.81,19.44,17.8a.89.89,0,0,1,0,.51Z"/><path class="cls-1" d="M0,49.74c.78-1.06,1.34-2.39,3-2.33.09,1.48.13,3,.35,4.44a226.29,226.29,0,0,0,5.7,27.74c1.41,5,1.06,10.48,4.18,15.2,1.28,2,2.42,2.57,4.18,2.12,4.38-1.12,8.72-2.45,13-3.81s8.77-2.92,13.15-4.39c-.51,1-2,1-2.38,2.27a.34.34,0,0,1-.36.15.65.65,0,0,0-.86.31.8.8,0,0,1-.52.15,1,1,0,0,0-1.26.53.42.42,0,0,1-.4.17c-.74-.16-1.49-.34-1.88.6-1.22-.23-2.4-.37-3.09,1l-1.19.49c-.33-.35-.5-.22-.57.2-.44.56-1.12.5-1.72.63-.74-.17-1.44-.18-1.86.63a.28.28,0,0,1-.32.15,4.06,4.06,0,0,0-3.13.25c-3.08,1.26-6.18,2.5-9.59,2.5a2.19,2.19,0,0,0-1.94,1.12c-4,.82-4.57-1.28-5.33-6.57C5.31,80.2,2.92,67.2.63,54.19c-.07-.41-.18-.76-.63-.87Z"/><path class="cls-3" d="M382,34.28a2.55,2.55,0,0,0-.81,3c-.27,1.91.25,3.92-.73,5.73a8.8,8.8,0,0,1-5.6,1.59c-10.13.09-20.27.18-30.4.4q-9.53.2-19,.76c-6.67.4-12.76,2.86-18.61,5.88-3.92,2-7.55,1.89-11.14-.62V46.78c1-1,.68-2.27.53-3.36-.82-5.87-.31-11.78-.73-17.65l.11-2c.48-1.72,1.9-1.42,3.15-1.44,5.81,0,11.63-.07,17.44-.11l.15-.11h.19l1.24.1,1.73-.08h1.08c1.56.1,2.53-.1,2.18-2.2a50.94,50.94,0,0,1-.26-6.76V7.37c.8-1.42,2.2-1.15,3.43-1.13q25.41.45,50.84,1a7.18,7.18,0,0,1,3.73.75q.66,2.67,1.3,5.34v7.5l-.62.49A73.71,73.71,0,0,1,373.5,21a73.47,73.47,0,0,0-17.41,0c-4.22.41-8.59.82-12.71.14-4.57-.76-9.07-.4-13.59-.4a4.71,4.71,0,0,0-4,1.5,5.75,5.75,0,0,0,4,1.26c4.14-.07,8.34.49,12.39-.43,4.9-1.12,9.66-1.59,14.43.35,4.5.77,9,.34,13.54.28.66-1.32,2-1.55,3.21-1.69,2.59-.33,5.22-.33,7.83-.46l.59.93C381.33,26.4,382.69,30.32,382,34.28Z"/><path class="cls-2" d="M267,75.12c1.91,1.61,2.11,4.13,3.15,6.19,3.24,6.39,7.26,12.28,11,18.35,2.67,4.33,6.53,7.35,9.86,11,2.26,2.45,4.66,4.78,7,7.16.15,1.09.87,1.34,1.83,1.23h0c.11,2.32,2.07,2.42,3.62,3h-.05c.21.6.7.65,1.24.63h0c0,.83.18,1.34,1.11.71,1.25,1.21,4.1,2.14.72,4.15a2.09,2.09,0,0,0-1.5-2c-.73,1.42-.95,3.73-2.82,3.64s-4.24-.49-4.45-3.32c0-.59-.7-.6-1.16-.71-2.83-.67-4.7-2.78-6.55-4.73s-4.37-2.75-5.11-5.45h1.24a.81.81,0,0,0,.08.25.31.31,0,0,1,.18.06l-.29-.28a1.83,1.83,0,0,0-1.79-1.79,4.66,4.66,0,0,0-2.38-2.39l-.6-.6c0-.88-.18-1.6-1.19-1.78l-.61-.6-.6-.6-.59-.6a1.18,1.18,0,0,0-.59-1.19l-.61-.6-.59-.6c0-.57-.11-1.13-.72-1.36a4.94,4.94,0,0,0-.48.79,20.26,20.26,0,0,1-6-9l.69-.06.24.14-.38-.25c-.06-.46-.07-1-.6-1.18l-.6-.61c-.05-.47-.07-1-.59-1.2-.06-.47-.1-.94-.6-1.19l-.59-1.2c-.17-.19.21-.76-.43-.62l.45.6v1.27c-.62.16-.89-.27-1.12-.7a136,136,0,0,1-9-21.58c-1.68-5.06-1.88-10.47-3.74-15.48-.18-1.49.24-2.37,2-2.3a20.83,20.83,0,0,0,4.1-.26c2.4-.4,3.14.39,2.14,2.66h.09l-5.05-.11-.39-.23.21.41c1.32,1.73,3.3.65,4.91,1.14.11.69,1.4,1.08.5,2-1,0-.63.6-.6,1.18.3,5,2.51,9.53,4.1,14.19C265.5,72.67,265.47,74.33,267,75.12Zm31.21,49.94a3,3,0,0,0,2.14-2.81c.07-.45-.55-.83-.73-.64a4.64,4.64,0,0,0-1.67,2.92A3.71,3.71,0,0,0,298.23,125.06Z"/><path class="cls-4" d="M261.27,52.75c1-2.27.26-3.06-2.14-2.66a20.83,20.83,0,0,1-4.1.26c-1.75-.07-2.17.81-2,2.3h-.93c-.27-1.83-1-2.49-3.13-2.32-6.94.56-13.9.77-20.85,1.11a1.12,1.12,0,0,0-1.15.43l-.75.07a.25.25,0,0,0-.34,0,.16.16,0,0,0,0,.07,4.56,4.56,0,0,0-4.51,2.85c-3.11-.09-6.2,1-9.32.14,0-.83-.48-1.1-1.21-1.13-4.36.09-8.71.14-13.07.27a7,7,0,0,0-3.81,1.2c-4.63,3-5.37,6.22-2.22,10.79.27.39.75.69.56,1.27a7.73,7.73,0,0,1-4.19-8c.45-2.34-1.2-3.32-2.21-4.46-.81-.91-2.62-.93-2.64,1.41a52.52,52.52,0,0,1-.49,5.29c-1.87-.83-4.13-.37-5.86-1.69a1.34,1.34,0,0,0,.52-1.82.41.41,0,0,0,0-.09c-.16-1.4.83-3.72-1.92-3.29a86.47,86.47,0,0,1-14.64,1.07c-4.13-.53-8.2.49-12.31.58-1,0-.08.52.2.75-.06,1.56,1,1.58,2.15,1.67.86.07,2-.63,2.52.76-3.12.49-6.32-.81-9.41.45l-1-.21c-.35-3.32-.6-3.46-3.67-2.06-.4-.88-1.64-1.37-1.23-2.63v-.23c2.57.37,5.09-.25,7.64-.41,19.59-1.22,39.25-2,58.88-3.49a13.91,13.91,0,0,1,6,1c3.8,1.39,8,.82,11.57-.51a23.33,23.33,0,0,1,7-1.91c19.75-1.08,39.53-2.24,59.29-3.3,2-.11,2.82-.71,2.67-2.78s0-4.32,0-6.77l2.67,1.15.1.65c-.68,0-1.57-.08-1.6.85a60,60,0,0,0,.11,6.14c0,.74.87.6,1.45.57l1.16.13.68.53V51c-.4,0-.87.16-1.17,0-6.49-3.69-13.32-.68-20-1a71.55,71.55,0,0,0-8.28.45c-1.67.13-3.64-.24-3.87,2.41C262.35,53.51,261.58,53.66,261.27,52.75Z"/><path class="cls-5" d="M285.5,154.94c-6.42-6-13.32-11.46-19.44-17.8a173.05,173.05,0,0,1-16.68-20.07C237.92,101,231.1,83,227.06,63.81c-.1-.49-.16-1-.3-1.46-.32-1-.83-1.79-2-1.86s-1.6.89-1.88,1.86c.1.72.21,1.44.31,2.17-1.83-1.6-1-3.4-.37-5.17,1.35,0,3,1.17,3.77-1,1,.62,1,1.68,1.16,2.63a145.88,145.88,0,0,0,16.11,43.53,147.21,147.21,0,0,0,31.79,38.69c1.25,1.07,1.87,3.36,3.62,3.19s2.32-2.5,3.57-3.73c.34-.34.56-.95,1.13-.57a1,1,0,0,1,.26,1.36c-.66,1.1-1.39,2.17-2.15,3.2-.54.73-1.35,1.32-.12,2.16,1,.69,1.87,1.06,2.73-.23,1.15-1.74,2.57-3.32,3.54-5.15a3.93,3.93,0,0,1,3.84-2.24h0c.27.91-1.11,1.71,0,2.87,3.32-3.77,5.5-8.31,9-11.81.73.06,1.64-.24,1.85.9-4.07,7.1-8.64,13.9-13.31,20.61C288.92,154.59,286.92,154.51,285.5,154.94Zm6.84-7.74c-2.16-2-4-2.93-4.88.78-.21.9-1,1.41-1.76,1.92-.35.24-1.31.57-.56,1.24.52.48,1.28,1.14,2,.18a20,20,0,0,0,1.18-1.71c.91-1.43,1.6-3.1,4-2.41Z"/><path class="cls-1" d="M302.86,133.06c-.21-1.14-1.12-.84-1.85-.9-.08-3-3.06-2.76-4.67-4l-.82-.82c-.06-.29,0-.72-.21-.82-5.92-3.46-10.48-8.52-14.9-13.5-9.93-11.19-17.94-23.7-22.84-37.95-2.49-7.26-5.43-14.45-5.46-22.33H253c1.86,5,2.06,10.42,3.74,15.48a136,136,0,0,0,9.05,21.58c.23.43.5.86,1.12.7h0c-.28.65-.09,1.06.62,1.2h0c-.18.6-.09,1.06.61,1.21h0c-.1.93.15,1.64,1.2,1.8h-.06a20.26,20.26,0,0,0,6,9h0c-.05.47.08.75.62.62h0a2.09,2.09,0,0,0,1.76,2.39h.05c-.07.47.06.76.61.62h0c-.28,1.47.62,2,1.81,2.4h0c0,.44.12.71.63.62h0c-.07.48.08.74.62.61h0c-.37.74.21,1.1.62,1.52l.87.86c.42.51.63,1.29,1.51,1.22h0c0,.44.18.65.62.62h0c.74,2.7,3.4,3.65,5.11,5.45s3.72,4.06,6.55,4.73c.46.11,1.12.12,1.16.71.21,2.83,2.59,3.24,4.45,3.32s2.09-2.22,2.82-3.64a2.09,2.09,0,0,1,1.5,2C305.57,129.51,304.81,131.65,302.86,133.06Z"/><path class="cls-5" d="M425.3,35.39c1,0,2.1-1.7,3.14.24.54,1,1.83.33,2.78.37.85,1,2.09.11,3,.62.56,1.55,2,1.3,3,1.09,5.41-1.09,10.84-.22,16.25-.29,12.29-.15,24.58,0,36.87-.06-.65,1.58-2,.92-3.11.93-9.59.06-19.18,0-28.77.08-1,0-2.54-.68-2.81,1.23h-1.17a1.24,1.24,0,0,0-1.2-.68H433.84c-.62,0-1.18.13-1.39.83-1.58,1.07-3.17,2-4.84.14-.29-1-1.17-.91-1.93-.91H410c-.65,0-1.18.12-1.38.83-4.21.65-8.43.37-12.64.27l.1-1c1.07-.64,2.42.19,3.44-.66,1.68,0,3.36,0,5-.13,3.11-.21,6.27.57,9.34-.48h2.43a1.47,1.47,0,0,0,2.07.27,1.44,1.44,0,0,0,.28-.27,20.34,20.34,0,0,1,5.4,0c.22.48.42.41.6,0C425.59,37.17,425.37,36.26,425.3,35.39Z"/><path class="cls-1" d="M455.7,39.6c.27-1.91,1.79-1.22,2.81-1.23,9.59-.06,19.18,0,28.77-.08,1.07,0,2.46.65,3.11-.93.74-.4,2.39.69,2.15-1.31,2.09.54,4.11,1.84,6.37.94s2.29.38,2.18,2c-.69,1.86-2.42,1.37-3.54,1.13-4.43-.94-8.87-.4-13.3-.45C474.73,39.51,465.22,39.6,455.7,39.6Z"/><path class="cls-5" d="M501.09,39c.11-1.58,0-2.82-2.18-2s-4.28-.4-6.37-.94l-.43-.48a2.19,2.19,0,0,1,2.36-1.33c2.92.1,5.84.15,8.76.22C502.25,35.82,503.21,38.12,501.09,39Z"/><path class="cls-5" d="M267,75.12c-1.55-.79-1.52-2.45-2-3.79-1.59-4.66-3.8-9.15-4.1-14.19,0-.58-.44-1.21.6-1.18,1.39,4.89,2.84,9.78,4.14,14.69C266.08,72.16,267.29,73.42,267,75.12Z"/><path class="cls-4" d="M380.48,43c1-1.81.46-3.82.73-5.73a5.53,5.53,0,0,0,4.54,0c.06.17.1.33.15.5l.17.82v.76c-.07.33-.14.66-.22,1C385.34,43.69,382.82,43.17,380.48,43Z"/><path class="cls-1" d="M408.61,39.82c.2-.71.73-.83,1.38-.83h15.69c.76,0,1.64-.13,1.93.91C421.28,39.29,414.92,40.23,408.61,39.82Z"/><path class="cls-1" d="M432.45,39.74c.21-.7.77-.83,1.39-.83h19.49a1.24,1.24,0,0,1,1.2.68Z"/><path class="cls-1" d="M385.92,40.28c.08-.33.15-.66.22-1l10-.18-.1,1Z"/><path class="cls-5" d="M256.31,52.62l5.05.12c.47.56.22.92-.32,1.21-1.61-.49-3.59.59-4.91-1.14Z"/><path class="cls-5" d="M303.46,122c-1.55-.6-3.51-.7-3.62-3A8.94,8.94,0,0,1,303.46,122Z"/><path class="cls-5" d="M299.92,119c-1,.11-1.68-.14-1.83-1.23A2.42,2.42,0,0,1,299.92,119Z"/><path class="cls-5" d="M305.73,123.27c-.93.63-1.12.12-1.11-.71Z"/><path class="cls-5" d="M304.65,122.59c-.54,0-1,0-1.24-.63C304.06,121.71,304.38,122.1,304.65,122.59Z"/><path class="cls-3" d="M176.83,60c1.73,1.32,4,.86,5.86,1.69v4.87c-5.92,2-11.77,7.27-11.77,14.39a125,125,0,0,1-5.13,12.46c-2.55,2.33-3.69,5.49-4.39,8.67-.91,4.17-1.27,8.47-1.88,12.71-6,3.79-18.42.33-21.55-5.48-1.32-2.44-2-4.85-1.08-7.39,3.42-9.08,7-18.09,10.49-27.13a10.28,10.28,0,0,0-.11-9.25A46.15,46.15,0,0,0,143.92,60c3.09-1.26,6.29,0,9.41-.45,4,.61,8,.19,12,.26C169.17,60.31,173,61.18,176.83,60Z"/><path class="cls-3" d="M41.22,91c.34-1.23,1.87-1.22,2.38-2.27l1.23-.14.53-.49A82.43,82.43,0,0,1,60.73,82.4c6.09-1.58,11.62-4.62,17.75-5.89,2.85-.57,4.8-2.83,7.65-3.61,7.11-1.94,14.16-4.13,21.15-6.52,6-2,12-4.4,18.26-5.78-.12.68-.59.92-1.2,1.13a82.13,82.13,0,0,0-8.62,3c-2.14,1-5,.49-6.39,3.07L83.47,76.74Q63.93,83.51,44.38,90.19C43.35,90.51,42.28,90.72,41.22,91Z"/><path class="cls-2" d="M222.78,59.35c-.6,1.77-1.46,3.57.37,5.17a1.92,1.92,0,0,1-1.54,2,4,4,0,0,0-3.53,2.92c-1.69-.64-3.19-2.27-5.26-1q-.4-6.65-.8-13.28c3.12.83,6.21-.23,9.32-.14C222.2,56.27,222.3,57.87,222.78,59.35Z"/><path class="cls-3" d="M109.33,67.86c1.36-2.58,4.25-2.09,6.39-3.07a82.13,82.13,0,0,1,8.62-3c.61-.21,1.08-.45,1.2-1.13l.52-.08c.83-.09,1.77.23,2.38-.67l1.14-.5c1,.9,1.41,0,1.85-.69,2-1.46,5.07-1.11,6.56-3.57-.41,1.26.83,1.75,1.23,2.63C129.34,61.35,119.4,64.81,109.33,67.86Z"/><path class="cls-3" d="M170.92,80.9c0-7.12,5.85-12.39,11.74-14.39-1.8,1.55-.14,3.92-1.44,5.89-.6-2.71-1.71-2.72-3.82-1.46-2.62,1.58-3.75,3.94-4.82,6.53C172.1,78.65,171.45,79.76,170.92,80.9Z"/><path class="cls-3" d="M159.48,114.74c.61-4.24,1-8.54,1.88-12.71.7-3.18,1.84-6.34,4.39-8.67-1.17,3.14-2.28,6.31-3.52,9.42a19,19,0,0,0-1,6.68C161.19,111.35,161.44,113.44,159.48,114.74Z"/><path class="cls-1" d="M218.08,69.38a4,4,0,0,1,3.53-2.87c-1.37,2.71-1.25,5.72-1.76,8.61-.12.71-.25,1.55-1.09,1.43s-.76-1-.68-1.7C218.29,73,219.15,71.19,218.08,69.38Z"/><path class="cls-3" d="M143.92,60a46.92,46.92,0,0,1,3.31,5.48,10.28,10.28,0,0,1,.11,9.25c.89-4.21-.6-7.82-2.94-11.15a7.62,7.62,0,0,1-1.48-3.79Z"/><path class="cls-1" d="M212,55.06q.4,6.63.8,13.28c-1.92.3-1.32-1.32-1.37-2.08-.31-4.1-.44-8.22-.64-12.33C211.54,54,212,54.23,212,55.06Z"/><path class="cls-5" d="M12.53,99.86a2.19,2.19,0,0,1,1.94-1.12c3.41,0,6.51-1.24,9.59-2.5A4.06,4.06,0,0,1,27.19,96C22.44,97.79,17.85,100.22,12.53,99.86Z"/><path class="cls-5" d="M203.2,74.06H183.92v-.24h19.14Z"/><path class="cls-5" d="M32.85,93.89c.69-1.37,1.87-1.23,3.09-1A4.6,4.6,0,0,1,32.85,93.89Z"/><path class="cls-5" d="M27.51,95.84c.42-.81,1.12-.8,1.86-.63A2,2,0,0,1,27.51,95.84Z"/><path class="cls-5" d="M35.92,92.89c.39-.94,1.14-.76,1.88-.6C37.33,92.91,36.62,92.85,35.92,92.89Z"/><path class="cls-5" d="M38.22,92.12a1,1,0,0,1,1.26-.53A1,1,0,0,1,38.22,92.12Z"/><path class="cls-5" d="M40,91.44a.65.65,0,0,1,.86-.31Z"/><path class="cls-5" d="M31.09,94.58c.07-.42.24-.55.57-.2Z"/><path class="cls-3" d="M126.06,60.56l-.52.08c-6.26,1.38-12.23,3.73-18.26,5.78-7,2.39-14,4.58-21.15,6.52-2.85.78-4.8,3-7.65,3.61-6.13,1.23-11.66,4.27-17.75,5.85a83.37,83.37,0,0,0-15.37,5.67l-.53.5-1.23.14c-4.38,1.47-8.74,3-13.15,4.39s-8.66,2.69-13,3.81c-1.76.45-2.9-.17-4.18-2.12-3.12-4.72-2.77-10.16-4.18-15.2A224.21,224.21,0,0,1,3.34,51.85c-.22-1.49-.26-3-.35-4.44,3.3-2.14,7.2-1.85,10.82-2.33,13.53-1.78,27.11-3.49,40.57-5.42,8-1.14,16.06-2,24.09-3a9.35,9.35,0,0,1,5.49.78c6,3,12.24,2.15,18.48.86l31.38-6.5c.26,0,.47-.34.7-.51.14.15.27.31.41.47a.79.79,0,0,1,.09.5,1.87,1.87,0,0,0-.58,1.89c.64,4.87,1,9.8,2.08,14.59.37,1.7-1,4.15,1.55,5.22l-.08.93v.23c-1.49,2.46-4.52,2.11-6.56,3.57-.7,0-1.45-.12-1.85.69l-1.14.5C127.61,60,126.64,59.57,126.06,60.56Z"/><path class="cls-2" d="M138,54.9c0-.31,0-.62.08-.93-.57-7.3-1.88-14.49-3-21.7a.79.79,0,0,0-.09-.5c2.36.22,4.13,0,3.15-3.21-.59-1.93.42-3.31,2.1-4.45,3.15-2.15,6.82-1.8,10.18-1.91,19.35-.61,38.71-.84,58.07-1.2,7.3,0,14.62.2,21.91-.12,13.79-.61,27.58-.63,41.37-.65a3.19,3.19,0,0,1,.85.25c.11.36.21.72.32,1.08-.35,1.43-.7,2.87-1.06,4.3L271.69,27c-1.78,0-3.57.11-5.35.14-11.48.16-23-.58-34.44.52-.72.06-1.68.29-1.89-.87-.27-1.44-1.57-1.93-2.49-2.76.26-1.58-.65-1.77-1.93-1.75-10.78.11-21.57.19-32.36.3-1.29,0-2.59.11-3.3,1.48-.65.11-.67.74-.94,1.17a5.7,5.7,0,0,0-3.82,4.22q-19.8.27-39.6.56a12.13,12.13,0,0,1-4.11-.47c-.62-.21-1.56-.17-1.52.83s.78.52,1.35.45a25.16,25.16,0,0,1,3-.18c12.91,0,25.81,0,38.71-.62.77,0,1.62.2,2.17-.61H187c.25,1.71-1.62,2-2.13,3.2-4.22.16-8.45.74-12.64-.1-.63-.13-.77-.19-1,.35-.75,1.77-2.28,3.33-1.51,5.52a3.9,3.9,0,0,0,1.67,3c1.26.75,2.43,3.61,4.19.5,10.67-1.59,20.49-7.31,31.64-6.57,3.93-.23,7.46-2.33,11.42-2.42,3.4.63,6.44-.67,9.5-1.81a2.13,2.13,0,0,0,1.55-2.27,7.66,7.66,0,0,1,3.17-.61q19.49-.33,39-.72a18.8,18.8,0,0,0,5.19,0c1.84.36,2.56-.52,2.48-2.26-.07-1.46-.16-2.93-.23-4.39l.27-1.56h11.18V18.06H279.54l-4.15.15-43.1.55c-1.38-.83-.25-1.67,0-2.5a1,1,0,0,0,1.22-.71.61.61,0,0,0,0-.13c1.1,0,2.23.09,3-1l3.45-.26c.84,1.29,2.16.74,3.26.75,10,.05,20,.12,30,0,1.72,0,3.45,1.26,5.15,0,1.07-.9,1.21-2,.11-2.81-.67-.48-1.28-.73-1.24-1.64,3.87-.71,8.09.85,12-1.43-1.18-1.15-2.42-.16-3.21-1a7.09,7.09,0,0,0,5.51-1.3c1-.67,1.76-1.56,3.27-.68a3,3,0,0,0,4-.73c1.17-1.24,3.65.43,4.73-1.64,3.08,3.2,6.89-1.11,10.07,1-.95.5-1.93.94-2.85,1.49-1.71,1-1.43,3.44.49,4.47-.18,1.28.32,1.59,1.46,1.07s2-1.23,3.18-1.26a4.41,4.41,0,0,0,0,.89c.31,1.35-1,3.83,2.27,3.15.7-.15.82.64.71,1.29s0,1.63-1.23,1.61c-2.17,0-1.67,1.35-1.37,2.62l-.09,2.26c-5.81,0-11.63.06-17.44.11-1.25,0-2.67-.28-3.15,1.44C294,24,291.34,23.06,291,25c-.58,3.54-.16,7.24-.16,10.87h.94V28.23c0-3.14.61-3.53,3.71-2.4.42,5.87-.09,11.78.73,17.65.15,1.09.46,2.38-.53,3.36l-.68-.53V40.23c0-1,.09-2-1.23-2.26l-2.67-1.15c0,2.45-.12,4.62,0,6.77s-.63,2.67-2.67,2.78c-19.76,1-39.54,2.14-59.27,3.26a23.33,23.33,0,0,0-7,1.91c-3.59,1.33-7.77,1.9-11.57.51a13.91,13.91,0,0,0-6.05-1c-19.65,1.46-39.31,2.23-58.94,3.46C143.08,54.65,140.56,55.27,138,54.9ZM185.7,40.72a25.16,25.16,0,0,0-9,2.74c3.14-.58,6.3-1.09,9.15-2.61.83-.08,1.73.17,2.38-.6a61.46,61.46,0,0,0,13.2-3.55c.1-.11.31-.3.29-.33-.23-.34-.37-.08-.5.12-4.47.85-8.94,1.67-13.11,3.62C187.25,40.19,186.34,39.94,185.7,40.72ZM299.92,12.81c.94-.7,1.9-1.37,2.77-2.14.17-.15.08-.76-.07-1.06a.48.48,0,0,0-.61-.3.45.45,0,0,0-.3.3c-.58,1.36-1.75,1.62-3,2-.67.23-.63,1.16.43,1.36.11,1.6.33,3.41,2.17,3.69s1.42-1.65,2.41-3.17C301.86,14.36,300.64,14.29,299.92,12.81ZM152.81,26.62c-3.63-.09-7.28-.24-10.82.95h10.87c8.8.42,17.56-.31,26.32-.95Zm89.74,20.07a9.87,9.87,0,0,0,4.11.39c5.24-.34,10.49-.55,15.72-.94,8.09-.61,16.22-.67,24.27-1.83,3.56-2,1.51-5,1.42-7.69.13-2-1-2.88-2.88-3a49.91,49.91,0,0,0-5.35.07c-10.21.56-20.41,1.09-30.6,1.74-9.63.61-9.14.66-8,10.12A1.38,1.38,0,0,0,242.55,46.69Zm-19.9.67a6.4,6.4,0,0,0,5,.73c.47-.1,1-.18,1.06-.8s-.54-.77-1-.88a5.68,5.68,0,0,0-5.11,1ZM224.06,38c2.09,1.33,4,1.45,6.05-.05a5.13,5.13,0,0,0-6.05.05Z"/><path class="cls-4" d="M208.43,21c-19.36.36-38.72.59-58.07,1.2-3.36.11-7-.24-10.18,1.91-1.68,1.14-2.69,2.52-2.1,4.45,1,3.24-.79,3.43-3.15,3.21-.14-.16-.27-.32-.41-.47,2.64-1.68,1.69-5,3.26-7.25,1.09-1.58,1.76-3.25,3.87-3.5a4.56,4.56,0,0,0,2.93-1.85c5-6.57,12.13-7,19.53-7.19,34-.8,68-1.15,102-1.33,3.67,0,7.36.25,11-.45l.11.72c0,.91.57,1.16,1.24,1.64,1.1.78,1,1.91-.11,2.81-.72-1.58-2.18-1.13-3.39-1.13-7.82,0-15.65,0-23.47.09-3.85.05-7.71-.32-11.55.32l-3.45.26a1.88,1.88,0,0,0-1.63-.5H193.6c-.78,0-1.62-.09-2,.87l-7,.1c-2.5-.54-5-1-7.39.37l-8.73.26c-.26-.3-.5-.29-.73,0h-1.13c-5.65-.09-11.33-.42-16.81,1.48,5.63-.48,11.26,0,16.87-.24,9.94-.18,19.89.43,29.81-.54l2.38.08c.22.39.43.37.63,0h1.17a8.67,8.67,0,0,0,6.58-.08L232.33,16v.21c-.25.84-1.38,1.68,0,2.51-.8,1.86-2.51,1.6-4,1.63-4.57.08-9.15,0-13.72.13C212.52,20.57,210.41,20,208.43,21Z"/><path class="cls-1" d="M381.78,13.3q-.64-2.67-1.3-5.34c1-.1,2.46-.74,2.92.54.78,2.19,2.41,1.77,4,1.93,5.42.55,10.85.48,16.28.54a2.16,2.16,0,0,1-2.61,1.58l-.15,0c-3.37-.77-6.64.59-10,.14s-1.5,2.4-2,3.66c-.63,1.51.52,2.09,2,1.81,1,.88,2.32.62,3.42.49,4.92-.54,9.85-.36,14.78-.59.93,1,1.1.29,1.2-.55h0c2,1.18,3.69.31,5.39-.68,4.55-.89,9.16-.32,13.73-.52,1,1,1.55.61,1.95-.52l5.76,6c-3.93,1-8-.07-11.9.52-.94-1.06-2.2-.73-3.35-.73-8.7,0-17.4.15-26.11.18a12.87,12.87,0,0,0-5.72.93.61.61,0,0,0,0-.46c-.13-.82.17-2.33-.75-2.23-2.14.24-3.61-.74-5.14-1.85-.11-1.13-.21-2.27-.33-3.4S383.25,12.63,381.78,13.3Zm5.46,1.21c.11-.67-.09-1.09-.9-1-1.17.07-1.09.95-1.06,1.72s-.08,1.63.88,1.53C387.37,16.51,386.77,15.22,387.24,14.51Z"/><path class="cls-5" d="M505.17,24.08c-.81.23-1.59-.6-2.58.54s-3,1.4-4.66,1a17.89,17.89,0,0,0-8.2.05,9.53,9.53,0,0,1-5.26-.43,98.34,98.34,0,0,1,7.07-17c.26-.51.81-.87.57-1.55a4.6,4.6,0,0,1,3.69-1.18c2.13.13,4.27,0,6.4,0q.09,6.78.19,13.56c0,1.88-.58,4.17,2.62,4A6.85,6.85,0,0,1,505.17,24.08Zm-5.74-2.38c-.2-6.14-.2-6.14-6.38-6a7.75,7.75,0,0,0-1.18,0c-2.19.42-2.43,2.49-3,4-.45,1.26.43,2.44,2.07,2.51.08.28.1.77.25.81a19.13,19.13,0,0,0,8.45.09C500.56,23,500.79,22,499.43,21.7Z"/><path class="cls-5" d="M390.92,18.12c-1.49.28-2.64-.3-2-1.81.52-1.26-1.24-4.12,2.06-3.68s6.61-.91,10-.14a2.16,2.16,0,0,0,2.74-1.35,1.54,1.54,0,0,0,0-.17h4.81c.38.65.77.61,1.16,0L411,11c0,1-1.7,1.58-.62,2.79A2.65,2.65,0,0,1,407.8,15c-3.44-.28-6.8,1.22-10.29.23a3.7,3.7,0,0,0-4.18,1.06h12.95c1.08,0,2.5-.56,2.9,1.2-4.75,0-9.51-.11-14.26-.08C393.54,17.43,392.08,17,390.92,18.12Z"/><path class="cls-1" d="M410.33,13.8c-1.08-1.21.61-1.82.62-2.79h4.73c.21.31.42.3.63,0,3.54,0,7.07.07,10.6-.1,1.89-.09,3,.56,3.44,2.34l-.92.64-13.07-.12c-.07-.4-.19-.82-.67-.81s-.6.4-.65.81Z"/><path class="cls-1" d="M316.25,20c-.3-1.27-.8-2.66,1.37-2.62,1.19,0,1.1-.85,1.23-1.61s0-1.44-.71-1.29c-3.27.68-2-1.8-2.27-3.15a4.41,4.41,0,0,1,0-.89c0-.21.05-.43.07-.64,1.44.13,2.8.52,3.36-1.65.37-1.46,2.07-.56,3.17-.73V13.2c-1.27.06-2.37.34-2.3,2,.1,2.34-.3,4.7.38,7h-1.08C320.06,18.94,317.74,20.05,316.25,20Z"/><path class="cls-1" d="M277.24,10.45l-.11-.72A12.89,12.89,0,0,0,277.05,8a1.67,1.67,0,0,0,.87-1.34h.55l1.07-.42c1.23,2.3,3.27,1.11,4.84.86s1-2,1.08-3.22c.79.3.69,1,.66,1.6,0,.84,0,1.69-.05,2.53.79.88,2-.11,3.21,1C285.33,11.3,281.11,9.74,277.24,10.45Z"/><path class="cls-1" d="M502.2,5.51c-2.13,0-4.27.13-6.4,0a4.58,4.58,0,0,0-3.69,1.25c-.85-2.24-1.51-4.43,1.43-5.72C493.49,2,493,3.5,494.64,3c2.62-.89,5,.56,7.52.24C502.17,4,502.19,4.74,502.2,5.51Z"/><path class="cls-5" d="M425.24,22.27c3.95-.59,8,.49,11.9-.52a5.12,5.12,0,0,1,2.45,1.67c-1.93,1.48-4.17.62-6.25.68-2.71.07-5.41-.07-7.92,1.19Z"/><path class="cls-4" d="M311.24,10.58c-1.92-1-2.2-3.44-.49-4.47.92-.55,1.9-1,2.85-1.49,1.85.91,2.65,2.31,2,4.37C313.92,8.86,312.77,10.23,311.24,10.58Z"/><path class="cls-4" d="M285.45,3.85c-.11,1.19.61,3-1.08,3.22s-3.61,1.44-4.84-.86a3.23,3.23,0,0,0,2.39-1.86C282.92,2.81,284.08,2.61,285.45,3.85Z"/><path class="cls-5" d="M502.16,3.19c-2.51.32-4.9-1.13-7.52-.24-1.62.55-1.15-1-1.1-1.91.31-.12.55-.07.65.29,2.32-.31,4.77.72,7-.67C502.41,1.15,502.25,2.19,502.16,3.19Z"/><path class="cls-4" d="M286.06,8c0-.84,0-1.69.05-2.53,1.66,1.1,3.87-.17,5.46,1.23A7.09,7.09,0,0,1,286.06,8Z"/><path class="cls-5" d="M278.46,6.63h-.54l-1.76.12a5.1,5.1,0,0,1-.36-4.06C276.92,4.16,278,5.16,278.46,6.63Z"/><path class="cls-1" d="M501.18.66c-2.22,1.39-4.67.36-7,.67C496.34-.79,498.78.14,501.18.66Z"/><path class="cls-5" d="M311.24,10.58c1.53-.35,2.69-1.72,4.4-1.59.1.26.21.51.31.76a.83.83,0,0,1-.07.64c-1.21,0-2.14.78-3.18,1.26S311.06,11.86,311.24,10.58Z"/><path class="cls-5" d="M429.43,13.9l.92-.64c.72.68.71,1.65,1,2.49-.4,1.13-1,1.54-2,.52A2.23,2.23,0,0,0,429.43,13.9Z"/><path class="cls-4" d="M276.15,6.77l1.77-.12A1.66,1.66,0,0,1,277.06,8,1.19,1.19,0,0,1,276.15,6.77Z"/><path class="cls-1" d="M409.7,11c-.39.59-.78.63-1.16,0Z"/><path class="cls-5" d="M416.31,11c-.21.3-.42.31-.63,0Z"/><path class="cls-5" d="M448.47,30.07c-.64.49-.49,2-1.78,1.6-4.35-1.34-8.64.33-13,.31a15.38,15.38,0,0,1-4.62-.72c-5.2-1.89-10.4-.68-15.44-.41-9.32.49-18.62.13-27.93.37-.95-1,0-1.95,0-2.92,11.15.65,22.31-.58,33.47.42,8.68.78,17.28-2,26-1.11,1.25.13,2.67-.32,3.33,1.28Z"/><path class="cls-2" d="M390.06,22.65c0,1.07-.05,2.15-.07,3.23-2.19-1.32-4.17-.18-4.24,2.42,0,1-1,1.94,0,2.92,0,2.46-1.2,3.58-3.71,3.06.67-4-.69-7.88-.31-11.84,2.76-.37,5.58,1,8.32-.25A.61.61,0,0,1,390.06,22.65Z"/><path class="cls-2" d="M448.47,30.07l.08-1.18,35.33-.2a7,7,0,0,0,3.48-.44,14,14,0,0,1-.07,1.71l-35.56.19C450.65,30.16,449.56,30.1,448.47,30.07Z"/><path class="cls-5" d="M487.29,30c0-.57,0-1.14.07-1.71,1.91-1.25,4-.5,6-.59,2.87-.14,5.75,0,8.62,0,.62,0,1.29.13,1.32.88s-.64.85-1.26.92A84.53,84.53,0,0,1,487.29,30Z"/><path class="cls-2" d="M434.26,36.62c-.95-.51-2.19.36-3-.62.23-1.12.92-1.83,2-1.59,3.31.74,6.65.18,10,.35-.06.37-.12.75-.17,1.12-2.95.41-6-.77-8.88.75Z"/><path class="cls-4" d="M390.8,35.07c-.92,2.78-3.35.92-4.94,1.63.06-1.22-.28-2.78,1.45-3C388.59,33.51,390.35,32.86,390.8,35.07Z"/><path class="cls-5" d="M443.07,35.88c.05-.37.11-.75.17-1.12,1.49-.09,2.94-1,4.48-.26-.45.73-.5,1.8-1.65,1.92C445.17,35.71,444,36.26,443.07,35.88Z"/><path class="cls-1" d="M356.54,23.38c-4.77-1.94-9.53-1.47-14.43-.35-4.05.92-8.25.36-12.39.43a5.75,5.75,0,0,1-4-1.26,4.71,4.71,0,0,1,4-1.5c4.52,0,9-.36,13.59.4,4.12.68,8.49.27,12.71-.14a73.47,73.47,0,0,1,17.41,0,73.7,73.7,0,0,0,7.72.31v.23c-2.61.13-5.24.13-7.83.46-1.16.14-2.55.37-3.21,1.69C365.6,21.94,361.07,22.64,356.54,23.38Z"/><path class="cls-2" d="M320.55,22.16c-.68-2.3-.28-4.66-.38-7-.07-1.62,1-1.9,2.3-2a50.94,50.94,0,0,0,.26,6.76C323.08,22.06,322.11,22.26,320.55,22.16Z"/><path class="cls-4" d="M381.12,21.51v-.23l.62-.48c2,1.06,2.24.84,2.38-2.69,1.53,1.11,3,2.09,5.14,1.85.92-.1.62,1.41.75,2.23-2.74,1.23-5.56-.12-8.32.25Z"/><path class="cls-2" d="M384.14,18.11c-.14,3.53-.34,3.75-2.38,2.69V13.3c1.47-.67,1.89.18,2,1.41S384,17,384.14,18.11Z"/><path class="cls-4" d="M295.46,25.75c-3.1-1.13-3.7-.74-3.71,2.4v7.64h-.94c0-3.63-.42-7.33.16-10.87.32-1.94,2.95-1,4.6-1.18C295.53,24.42,295.5,25.09,295.46,25.75Z"/><path class="cls-6" d="M370.08,23.66c-4.52.06-9,.49-13.54-.28"/><path class="cls-4" d="M316.25,20c1.49.1,3.81-1,3.22,2.18l-1.73.08a.78.78,0,0,0-1.08-.24.7.7,0,0,0-.16.14h-.19l-.15.11Z"/><path class="cls-1" d="M316.5,22.11a.79.79,0,0,1,1.1-.07,1.15,1.15,0,0,1,.14.17Z"/><path class="cls-5" d="M298.23,125.06a3.71,3.71,0,0,1-.26-.53,4.64,4.64,0,0,1,1.67-2.92c.18-.19.8.19.73.64A3,3,0,0,1,298.23,125.06Z"/><path class="cls-5" d="M282.77,113.05l-.87-.86v-1.55h0a4.66,4.66,0,0,1,2.38,2.39h0Z"/><path class="cls-5" d="M284.28,113.06a1.83,1.83,0,0,1,1.79,1.79h-1.24a.62.62,0,0,0-.62-.62h0V113Z"/><path class="cls-5" d="M280.11,108.29c1,.18,1.23.9,1.19,1.78h-.65l-.63-.62h0v-1.23Z"/><path class="cls-5" d="M275.32,103.51c.16-.27.42-.81.48-.79.61.23.68.79.72,1.36h-.64a.6.6,0,0,0-.58-.62h0Z"/><path class="cls-5" d="M277.72,105.3a1.18,1.18,0,0,1,.59,1.19h-.64v-1.24Z"/><path class="cls-5" d="M267,89.14l-.45-.6c.64-.14.26.43.43.62Z"/><path class="cls-5" d="M266.92,90.41V89.14h0l.59,1.2h-.65Z"/><path class="cls-5" d="M267.56,90.36c.5.25.54.72.6,1.19h-.64V90.32Z"/><path class="cls-5" d="M268.16,91.51c.52.24.54.73.59,1.2h-.64V91.47Z"/><path class="cls-5" d="M270,94.51l-.69.06h.06V93.34h0c.53.23.54.72.6,1.18Z"/><path class="cls-5" d="M281.3,110.07l.6.6h-.65V110Z"/><path class="cls-5" d="M286.07,114.85l.29.28c-.07,0-.16,0-.18-.06a.81.81,0,0,1-.08-.25Z"/><path class="cls-5" d="M276.52,104.1l.59.6h0l-.6-.6Z"/><path class="cls-5" d="M277.11,104.7l.61.6h0l-.6-.6Z"/><path class="cls-5" d="M256.13,52.81l-.21-.41.39.23Z"/><path class="cls-5" d="M269.92,94.51l.26.12-.24-.14Z"/><path class="cls-5" d="M278.31,106.51l.59.6h-.65v-.65Z"/><path class="cls-5" d="M278.92,107.09l.6.6h0l-.59-.6Z"/><path class="cls-5" d="M279.5,107.69l.61.6h0l-.6-.6Z"/><path class="cls-5" d="M268.75,92.75l.6.61h0l-.6-.6Z"/><path class="cls-2" d="M296.34,128.12c1.61,1.28,4.59,1,4.67,4-3.5,3.5-5.68,8-9,11.81-1.08-1.16.3-2,0-2.87l.61-.6a1.14,1.14,0,0,0,.59-1.19l.6-.59a.77.77,0,0,0,.25-.1v-.2l-.25.32-.6.61a1.12,1.12,0,0,0-.59,1.18c-.2.21-.4.41-.61.61a3.93,3.93,0,0,0-3.84,2.24c-1,1.83-2.39,3.41-3.54,5.15-.86,1.29-1.72.92-2.73.23-1.23-.84-.42-1.43.12-2.16a35.72,35.72,0,0,0,2.15-3.2,1,1,0,0,0-.26-1.36c-.57-.38-.79.23-1.13.57-1.25,1.23-1.77,3.55-3.57,3.73s-2.37-2.12-3.62-3.19a147.3,147.3,0,0,1-31.73-38.6A146,146,0,0,1,227.71,61c-.2-1-.18-2-1.16-2.63-.06-1.63-.13-3.26-.19-4.89L226.23,52,227,52a2.45,2.45,0,0,0,2.44,2.45,2.82,2.82,0,0,0,.65-.08c2.68-.38,5.38-.5,8.07-.76-2.57-.23-5.13-.21-7.69-.24-1.18,0-2.54.08-2.32-1.8,7-.34,13.91-.55,20.85-1.11,2.11-.17,2.86.49,3.13,2.32,0,7.88,3,15.07,5.46,22.33,4.9,14.25,12.91,26.76,22.84,38,4.42,5,9,10,14.9,13.5.17.1.15.53.21.82-.79.85-1.64,1.66-2.38,2.56-2.31,2.78-4.55,5.62-6.89,8.38-1.25,1.49-1.48.61-1.37-.72l.8-.74-.37-.21-.39,1c-1.48.75-1.84,1.87-.66,3.06s2,.24,2.77-.61A104.88,104.88,0,0,0,296.34,128.12Zm-18.63,10.64.35.27-.3-.33-.62-.58-.6-.6-.59-.59-.61-.59-.6-.59-.59-.61-.6-.59-.6-.6a.9.9,0,0,0-.12-.24h-.19l.31.26.6.6.59.6.6.59.6.6c.19.21.39.41.59.61l.59.59.6.6A6.75,6.75,0,0,1,277.71,138.76Zm9-3.63a.68.68,0,0,0,.21-.1v-.16l-.21.29-.3.26h.18a1.57,1.57,0,0,0,.08-.29Zm1.19-1.8.31-.22H288a.94.94,0,0,0-.1.23.65.65,0,0,0-.22.11v.16Zm-17.33-1.82a1.14,1.14,0,0,0,.06.25l.19.07-.27-.3-.6-.59-.6-.6-.6-.6-.59-.6-.6-.59-.6-.6-.6-.6-.6-.59-.59-.6a1,1,0,0,0-.07-.25.27.27,0,0,1-.17-.06l.27.28.6.59.6.6.59.6.6.6.59.6.6.59.6.6.6.6Zm7.16-.59.59.6.59.52.19-.34-.77-.18-.61-.59-.58-.61-.6-.6-.53-.66c-.28-1.85.34-2,1.61-.83,1.6,1.47,3.11,3,4.78,4.41,1.11.93,2.58,2.18,3.72.27,1-1.69-.21-2.68-1.81-3.2l-.59-.59c-.1-.18-.11-.57-.44-.18l.4.21.59.6c-.18.56.64,1.25,0,1.62-.81.46-1.41-.2-2-.75a127.05,127.05,0,0,1-14-14.6,130.31,130.31,0,0,1-22-39c-.29-.8-.35-1.94-1.54-2.11-.15.22-.27.33-.25.38A135.68,135.68,0,0,0,264,112.58a109.16,109.16,0,0,0,10.35,12.28c1.19,1.17,1.49,2.06-.77,1.85l-.56-.63-.62-.57-.62-.58-.61-.59a.58.58,0,0,0-.56-.6h0a1,1,0,0,0-.59-1.2l-.6-.6-.6-.6-.59-.59c-.05-.5-.16-.94-.77-1a.29.29,0,0,0-.19.2c0,.61.45.75,1,.76l.59.59.6.6.6.6a1,1,0,0,0,.6,1.19l.6.59c.19.21.39.41.59.61l.58.61.58.62.62.57a4.2,4.2,0,0,0,2.34,2.44l.65.55.6.59Zm3.56-3.55c.11.18.13.56.46.18l-.4-.24-.62-.59-.58-.6-.6-.6-.6-.6-.61-.58-.61-.58-.58-.62-.61-.58L276,122l-.59-.6-.61-.59-.6-.59a1,1,0,0,0-.6-1.19l-.58-.62-.62-.57-.59-.61-.58-.61-.63-.57a.81.81,0,0,0-.05-.27.3.3,0,0,1-.19-.07l.25.33.58.62.61.59.6.58.57.63.63.57a1,1,0,0,0,.59,1.2l.6.6.59.6.6.6.6.59.59.61.61.58.59.61.58.6.6.6.6.6.59.59Zm-31-21.55.22.17-.26-.14-.22-.16Zm9,13.14.6.6a1.7,1.7,0,0,0,1.19,1.79,1.14,1.14,0,0,0,1.07,1.19h.12l.61.6.14.75.31-.17-.49-.54-.6-.6c0-.79-.37-1.22-1.2-1.19a1.69,1.69,0,0,0-1.18-1.8l-.61-.59a.62.62,0,0,0-.07-.23.2.2,0,0,1-.15-.07Zm20.28-.57.6.6a2.79,2.79,0,0,0,2.37,2.4,4.18,4.18,0,0,0,3,3l.59.49.21-.33-.74-.23a4.1,4.1,0,0,0-3-3,2.79,2.79,0,0,0-2.4-2.37l-.6-.6-.59-.6-.59-.61a1.06,1.06,0,0,0-.62-1.17l-.61-.58-.58-.62a1.93,1.93,0,0,0-1.78-1.81l-.61-.58a1,1,0,0,0-.6-1.19,1.93,1.93,0,0,0-1.76-1.82,1.1,1.1,0,0,0-.63-1.16c-.07-.69-.37-1.19-1.14-1.25a1.13,1.13,0,0,0-.67-1.13,8.68,8.68,0,0,0-2.93-4.23,2.15,2.15,0,0,0-1.23-1.76.55.55,0,0,0-.6-.59c-.33-2.66-2.06-4.57-3.56-6.59a1.71,1.71,0,0,0-1.22-1.77,3.78,3.78,0,0,0-1.21-3l-.57-.63a2.88,2.88,0,0,0-1.21-3,4.2,4.2,0,0,0-1.2-3c-1.84-6-4.48-11.75-5.77-18-.37-1.84-.71-3.69-1.16-5.52a2,2,0,0,0-2.26-1.82,1.8,1.8,0,0,0-.39.08c-1.38.35-1.1,1.47-.76,2.43.47,1.33.12,2.71.54,4.09,2,6.43,3.62,13,6.34,19.17,3.67,8.35,7.29,16.73,13.23,23.82a5,5,0,0,0,1.92,2.92c.84,2,2.43,3.59,3.78,5.27a102.27,102.27,0,0,0,15.06,15.44c1,.77,1.94,1.17,2.89.2s.53-2-.63-2.59c-.19-.44-.45-.81-1-.82-.05,0-.15.16-.14.23.07.6.54.67,1,.73-.51,2.11-1.53.9-2.3.28a106.27,106.27,0,0,1-10.79-10.64c-2.58-2.74-4.42-6.11-7.37-8.51a4.27,4.27,0,0,0-2-2.82c-.25-1.54-1.33-2.64-2.13-3.88a122.35,122.35,0,0,1-17.4-42.39c-.15-.74-.7-1.74.41-2s1,.91,1.18,1.63a148.08,148.08,0,0,0,5.29,18.56c.56,1.54.8,3.31,2.42,4.26-.08,1.19-.17,2.38,1.17,3-.1,1.19,0,2.32,1.19,3,.07.34.23.59.62.57-.13,1.21,0,2.32,1.18,3,0,.84,0,1.69,1.16,1.84a12,12,0,0,0,3.62,6.53l.59.61c-.05.87.08,1.64,1.12,1.86.5,1.76.78,3.69,3.09,4.08a1.12,1.12,0,0,0,.54,1.24c.09.72.38,1.23,1.23,1.17a1,1,0,0,0,.57,1.21c.17,1,.6,1.8,1.81,1.78a1,1,0,0,0,.6,1.19l.58.62c.13,1.06.63,1.77,1.8,1.78a.57.57,0,0,0,.57.57h.06a.54.54,0,0,0,.46.6h.12a.92.92,0,0,0,.53,1.2l.05,0,.6.59Zm-14.32-1.21.61.59c0,.48,0,.93.57,1.09.06,0,.23-.08.23-.13,0-.54-.39-.76-.83-.93l-.59-.61a.82.82,0,0,0-.1-.26H265Zm-1.2-1.78a.8.8,0,0,0,.05.26.32.32,0,0,1,.19.06l-.24-.33-.59-.6-.6-.6c-.08-.16,0-.6-.39-.24l.38.26.6.6a.58.58,0,0,0,.53.63h0Zm-2.38-3a.77.77,0,0,0,.07.26.27.27,0,0,1,.18.07l-.27-.31-.58-.61-.59-.61a1,1,0,0,0-.61-1.18l-.61-.59a1,1,0,0,0-.6-1.19l-.59-.6a1,1,0,0,0-.58-1.21l-.61-.58a1.09,1.09,0,0,0-.6-1.2,1.07,1.07,0,0,0-.09-.27H256l.31.31a1,1,0,0,0,.59,1.19l.58.61a1.06,1.06,0,0,0,.61,1.19l.61.59a1.09,1.09,0,0,0,.59,1.2l.59.6a1.08,1.08,0,0,0,.59,1.21l.6.59Zm-7.16,0,.6.6c0,.5.07,1,.59,1.19l.61.6a1.18,1.18,0,0,0,.59,1.21c.08.7.39,1.2,1.19,1.18a1.09,1.09,0,0,0,.07.24.24.24,0,0,1,.16.06l-.26-.27a1.05,1.05,0,0,0-.9-1.19,1,1,0,0,0-.3,0,1.11,1.11,0,0,0-.59-1.2l-.6-.6a1.07,1.07,0,0,0-.59-1.19l-.61-.6a.94.94,0,0,0-.06-.24.24.24,0,0,1-.16-.06,1.13,1.13,0,0,0,.2.29Zm10.74-3.57-.61-.59a1,1,0,0,0-.57-1.21c-.06-.49-.16-1-.78-1a.25.25,0,0,0-.19.2c0,.6.39.8.92.81a1,1,0,0,0,.63,1.17l.59.6a.9.9,0,0,0,.07.27s.14,0,.21.06ZM261,102.89c.1.15,0,.57.41.22l-.36-.27a1.11,1.11,0,0,0-.61-1.18,2.83,2.83,0,0,0-1.61-2.32c.14,1.28.39,2.14,1.56,2.36a1,1,0,0,0,.55,1.22Zm19.74,30.42.59.61c-.22.7.87,1.4.23,1.91s-1.4-.29-2-.67a5.13,5.13,0,0,1-.88-.8c-4.91-4.92-9.81-9.83-14.23-15.23a131.16,131.16,0,0,1-25-47c-1.47-4.82-2.57-9.73-3.85-14.62a7,7,0,0,0-.15,3.31c2.31,10.23,5.08,20.28,9.52,29.86A144.35,144.35,0,0,0,267.38,125a85.08,85.08,0,0,0,12.17,11.83c1.13.86,2.44,1.43,3.31-.08s.08-2.46-1.55-2.78l-.6-.59-.59-.5-.17.34ZM253.31,99.87l.59.6a2.11,2.11,0,0,0,1.2,2.39,1.43,1.43,0,0,0,.09.27h.2l-.31-.3a2.18,2.18,0,0,0-1.19-2.39l-.6-.59c0-.51,0-1-.6-1.2.06-1.2-.4-2.1-1.71-3.29.33,1.76.74,2.69,1.73,3.27a1.13,1.13,0,0,0,.54,1.27Zm-7.82-2.36a1,1,0,0,0,.09.21h.14l-.26-.23c-.14-.21.28-.78-.41-.65Zm10.35-3.2c0,.07.08.16.14.2.26.12.33,0,.19-.21a.91.91,0,0,0-.17-.17c-.06.06-.11.12.68,1a2.52,2.52,0,0,0-.22-.47c-.21-.24-.32-.18-.26.13a3.23,3.23,0,0,0,.15.52c.11,0,.22-.11-.51-1Zm-2-3.93c.1.16,0,.62.43.23l-.38-.27-.18-.78-.32.2Zm13.75,21.49-.58-.62c0-.5-.14-1-.79-1-.06,0-.18.14-.18.21,0,.63.4.8.94.8l.62.58a1,1,0,0,0,.58,1.2,1.16,1.16,0,0,0,1.07,1.26h.06c.1.2.12.55.46.2l-.35-.31c-.12-.69-.43-1.17-1.21-1.18a1,1,0,0,0-.64-1.16Zm-15.51-3,.6.6c0,.54-.12,1.16.5,1.48.09,0,.39-.11.39-.18a1.41,1.41,0,0,0-.92-1.27l-.6-.6a1.21,1.21,0,0,0-.59-1.19,1.63,1.63,0,0,0-.11-.23h-.15l.29.25a1.18,1.18,0,0,0,.57,1.12Zm-3-17.32.11.77.31-.16-.46-.58c-.1-.6.2-1.42-.85-1.57-.27.88.25,1.22.89,1.5Zm1.8-7.78c-.06-.94.13-2-1.27-2.73.26,1.23.39,2.14,1.22,2.78a4.89,4.89,0,0,0,1.81,3.69c-.24-1.85-.52-3-1.72-3.76Zm-6.58-3c-.14,3.17,1.7,5.5,3.32,7.93-.85-2.75-1.48-5.6-3.36-7.91a6.75,6.75,0,0,0-.62-3.16,107.06,107.06,0,0,1-4.26-15.72c-.28-1.51-.76-3-1.15-4.49-.47,3.45.63,6.56,1.45,9.68,1.24,4.66,2.24,9.41,4.62,13.68Zm-.57-9.37c-.48-5-2.26-9.61-3.09-14.48-.32,5.12,1.45,9.8,3.09,14.49Zm-.91-14.89c.9,5.67,1.86,11.33,4.3,16.59C245.49,67.62,244.54,62,242.82,56.51Zm6.1,21.84c0-1.06,0-1.71-.82-2.07C247.66,77,248,77.57,248.92,78.35Zm13.19,26.73c.15-.06.42-.12.43-.19a.62.62,0,0,0-.2-.48c-.26-.19-.51-.1-.52.25,0,.14.22.28.32.42Zm-4.29-8c-.08-.16-.12-.39-.25-.47-.3-.18-.53,0-.5.31a.55.55,0,0,0,.33.38c.13,0,.3-.11.45-.2Zm-9.54,5.4c-.06.17-.19.36-.14.47s.28.17.43.25c0-.15.18-.34.13-.45s-.24-.16-.39-.24Zm-.57-27.78-.15-.21a2.08,2.08,0,0,0-.19.43l.15.2Zm1.8,4.77-.17-.21a2.44,2.44,0,0,0-.19.44c0,.06.1.14.15.21Zm29.84,60.37-.16-.21-.19.18.26.27Zm-24.07-46.7.1-.17h-.15Zm-.7-1.34.15.12v-.19ZM253,88.25l-.14-.11v.19Zm-3,5.38-.11-.12v.17Zm8.38,4.77-.16-.11v.19ZM250.51,95l.09-.17h-.15Z"/><path class="cls-5" d="M176.83,60c-3.84,1.23-7.66.36-11.48-.11a6.29,6.29,0,0,1-1.76-3.4c4.65-.13,9.4-1.2,13.71,1.6a1.33,1.33,0,0,1-.38,1.85Z"/><path class="cls-1" d="M163.59,56.44a6.29,6.29,0,0,0,1.76,3.4c-4-.07-8,.35-12-.26-.49-1.39-1.66-.69-2.52-.76-1.17-.09-2.21-.11-2.15-1.68,4.07-.57,8.21.31,12.27-.5Z"/><path class="cls-2" d="M163.59,56.44l-2.69.2a4.75,4.75,0,0,0-.16-.82,86.47,86.47,0,0,0,14.64-1.07c2.75-.43,1.76,1.89,1.92,3.29C173,55.24,168.24,56.31,163.59,56.44Z"/><path class="cls-2" d="M293.82,46.1c-.58,0-1.4.17-1.45-.57a60,60,0,0,1-.11-6.14c0-.93.92-.83,1.6-.85Q293.83,42.32,293.82,46.1Z"/><path class="cls-5" d="M228.13,51.51c-.22,1.88,1.14,1.78,2.32,1.8,2.56,0,5.12,0,7.69.24-2.69.26-5.39.38-8.07.76a2.44,2.44,0,0,1-3-1.73,2.3,2.3,0,0,1-.09-.64A1.12,1.12,0,0,1,228.13,51.51Z"/><path class="cls-5" d="M160.74,55.82c0,.27.11.55.16.82-4.06.81-8.2-.07-12.27.5-.28-.22-1.16-.72-.2-.74C152.54,56.31,156.61,55.29,160.74,55.82Z"/><path class="cls-5" d="M293.82,46.1V38.54l-.1-.65c1.32.25,1.23,1.3,1.23,2.26v6.08Z"/><path class="cls-5" d="M226.36,53.43c-.76-.23-.6-.81-.51-1.36a.24.24,0,0,1,.32-.12l.06,0C226.27,52.51,226.32,53,226.36,53.43Z"/><path class="cls-2" d="M292.34,147.2c-2.39-.69-3.11,1-4,2.41a20,20,0,0,1-1.18,1.71c-.74,1-1.5.3-2-.18-.75-.67.21-1,.56-1.24.75-.51,1.55-1,1.76-1.92C288.3,144.27,290.18,145.24,292.34,147.2Z"/><path class="cls-5" d="M296.34,128.12A106.87,106.87,0,0,1,287,140c-.75.85-1.72,1.67-2.77.61s-.82-2.31.66-3.06h0c-.11,1.33.12,2.21,1.37.72,2.34-2.76,4.58-5.6,6.89-8.38.74-.9,1.59-1.71,2.38-2.56Z"/><path class="cls-2" d="M279.53,107.66l.6.6v1.23c-1.19-.36-2.09-.93-1.81-2.4H279Z"/><path class="cls-2" d="M277.14,104.67l.6.6v1.24a2.11,2.11,0,0,1-1.82-2.35v0h.64Z"/><path class="cls-2" d="M268.78,92.73l.6.6v1.23c-1.05-.16-1.3-.87-1.2-1.8Z"/><path class="cls-2" d="M284.32,113v1.24c-.88.07-1.09-.71-1.51-1.22Z"/><path class="cls-2" d="M281.28,110.67h.65v1.55C281.49,111.77,280.92,111.41,281.28,110.67Z"/><path class="cls-2" d="M267.59,90.34v1.23c-.71-.14-.9-.55-.62-1.2Z"/><path class="cls-2" d="M268.18,91.51v1.24c-.7-.15-.79-.61-.61-1.21Z"/><path class="cls-2" d="M280.08,109.51l.63.62C280.2,110.18,280.05,109.91,280.08,109.51Z"/><path class="cls-2" d="M281.33,110v.65c-.54.13-.69-.13-.62-.61Z"/><path class="cls-2" d="M284.27,114.25a.62.62,0,0,1,.62.62C284.45,114.9,284.24,114.69,284.27,114.25Z"/><path class="cls-2" d="M275.3,103.51a.6.6,0,0,1,.62.58v0C275.38,104.25,275.25,104,275.3,103.51Z"/><path class="cls-2" d="M278.34,106.51v.65c-.55.14-.68-.15-.61-.62Z"/><path class="cls-2" d="M396.07,39.11l-10,.18v-.76l9.93-.16,3.51.08C398.49,39.3,397.14,38.51,396.07,39.11Z"/><path class="cls-1" d="M399.51,38.45,396,38.37a1.77,1.77,0,0,0,0-.46l17.92-.07c-3.07,1-6.23.27-9.34.48C402.92,38.44,401.19,38.41,399.51,38.45Z"/><path class="cls-1" d="M416.31,37.84h2.35a1.47,1.47,0,0,1-2.07.27A1.44,1.44,0,0,1,416.31,37.84Z"/><path class="cls-1" d="M424.06,37.8h.6C424.48,38.21,424.28,38.28,424.06,37.8Z"/><path class="cls-5" d="M396,37.91a1.77,1.77,0,0,1,0,.46l-9.93.16c-.06-.27-.11-.55-.17-.82Z"/><path class="cls-1" d="M44.83,88.57l.53-.5Z"/><path class="cls-5" d="M129.58,59.39c.4-.81,1.15-.67,1.85-.69C131,59.42,130.62,60.29,129.58,59.39Z"/><path class="cls-5" d="M126.06,60.56c.58-1,1.55-.56,2.38-.67C127.83,60.79,126.92,60.51,126.06,60.56Z"/><path class="cls-5" d="M135,32.27c1.17,7.21,2.48,14.4,3,21.7-2.6-1.07-1.18-3.52-1.55-5.22-1-4.79-1.44-9.72-2.08-14.59A1.87,1.87,0,0,1,135,32.27Z"/><path class="cls-1" d="M208.43,21c2-1,4.09-.43,6.13-.48,4.57-.12,9.15-.05,13.72-.13,1.5,0,3.21.23,4-1.63l43.1-.55c-.11,1.29,2,.82,1.75,2.25l-.77.62-3.81-.6a3.19,3.19,0,0,0-.85-.25c-13.79,0-27.58,0-41.37.65C223.05,21.2,215.73,21,208.43,21Z"/><path class="cls-1" d="M241.26,45.6c-1.16-9.46-1.65-9.51,8-10.12,10.19-.65,20.39-1.18,30.6-1.74,1.78-.1,3.57-.13,5.35-.07s3,.9,2.88,3h-1c-.23-1.7-1.59-1.25-2.56-1.22-3.08.09-6.15.3-9.22.49l-32.1,2c-1.8,0-1.12,1.43-1.28,2.37C241.64,42.06,242.65,44,241.26,45.6Z"/><path class="cls-5" d="M227.52,24c.92.83,2.22,1.32,2.49,2.76.21,1.16,1.17.93,1.89.87,11.47-1.1,23-.36,34.44-.52,1.78,0,3.57-.1,5.35-.14a.9.9,0,0,1,.16.53q-19.5.38-39,.72a7.66,7.66,0,0,0-3.17.61l-1-.09c.82-3.36-1.69-2.9-3.59-3.12-.07-.71-.36-1.09-1.13-.78-1.58.65-3.23.33-4.86.32-.5-1-1.59-.23-2.25-.76.18-1.43,1.2-1.58,2.35-1.57C222,22.87,224.92,22.45,227.52,24Z"/><path class="cls-1" d="M286.65,44.31c-8,1.2-16.18,1.2-24.27,1.83-5.23.39-10.48.6-15.72.94a9.87,9.87,0,0,1-4.11-.39l.74-.8a182.34,182.34,0,0,0,20.5-1.09c7.6-.66,15.27-.11,22.81-1.51Z"/><path class="cls-1" d="M227.52,24c-2.6-1.58-5.48-1.16-8.31-1.17-1.15,0-2.17.14-2.35,1.57a11.78,11.78,0,0,0-5.47-.88c-7.16.22-14.33.33-21.49.48h0c.71-1.37,2-1.47,3.3-1.48,10.79-.11,21.58-.19,32.36-.3C226.92,22.26,227.78,22.45,227.52,24Z"/><path class="cls-1" d="M207.22,35.36c-11.15-.74-21,5-31.64,6.57v-.62a2.42,2.42,0,0,1,0-.47,1.41,1.41,0,0,0,1.21-.6l.64-.56h.77c4.87-.87,9.52-2.61,14.32-3.72s9.52-4.11,14.67-1.23A2.66,2.66,0,0,1,207.22,35.36Z"/><path class="cls-5" d="M239.92,14.18c3.84-.64,7.7-.27,11.55-.32,7.82-.1,15.65-.1,23.47-.09,1.21,0,2.67-.45,3.39,1.13-1.7,1.27-3.43,0-5.15,0-10,.14-20,.07-30,0C242.12,14.92,240.8,15.51,239.92,14.18Z"/><path class="cls-1" d="M191.62,14.83c.38-1,1.22-.87,2-.87h41.26a1.88,1.88,0,0,1,1.63.5c-.74,1.07-1.87,1-3,1-.15-.9-.73-.88-1.41-.65l-35.59.36Z"/><path class="cls-1" d="M219.11,25.19c1.63,0,3.28.33,4.86-.32.77-.31,1.06.07,1.13.78-2.6.13-2,2.1-1.69,3.44.41,1.88,1.77.74,2.77.47s1.67-.52,2.51-.79l1,.09a2.13,2.13,0,0,1-1.55,2.27c-3.06,1.14-6.1,2.44-9.5,1.81a9.9,9.9,0,0,0-.14-1.22,3.64,3.64,0,0,1,1.11-.42c2.62-.05,3.17-2,3-3.85s-2.22-1.54-3.66-1.51c-4.67.1-9.34.25-14,.38l-1.24-.49h0a2.09,2.09,0,0,1,0-.5Z"/><path class="cls-5" d="M185.13,29.41c-.55.81-1.4.58-2.17.61-12.9.62-25.8.65-38.71.62a25.16,25.16,0,0,0-3,.18c-.57.07-1.31.48-1.35-.45s.9-1,1.52-.83a12.13,12.13,0,0,0,4.11.47q19.8-.3,39.6-.56Z"/><path class="cls-4" d="M271.85,27.51a.9.9,0,0,0-.16-.53,11,11,0,0,1,.13-1.14c1.23-1.22,2.53-2.42,1.06-4.3-.11-.36-.21-.72-.32-1.08l3.81.6c.11.62-1.12,1.3.21,1.92,1.06.49,1.23,1.65,1.3,2.75L277,27.51A18.8,18.8,0,0,1,271.85,27.51Z"/><path class="cls-5" d="M152.81,26.62h26.37c-8.76.64-17.52,1.37-26.32.95C152.84,27.25,152.83,26.94,152.81,26.62Z"/><path class="cls-1" d="M184.86,32.65c.51-1.2,2.38-1.49,2.13-3.2h0c.6.18.79-.05.62-.63h0c.72.4,1-.13,1.22-.62h0c2.28-3.08,5.63-2.56,8.81-2.61l6.12.21h0a1.51,1.51,0,0,1,0,.52c-2.85.06-5.7.2-8.55.13a5.83,5.83,0,0,0-4.68,1.9c-1.62,1.67-2.92,3.73-5.14,4.76Z"/><path class="cls-1" d="M169.72,38.42c-.77-2.19.76-3.75,1.51-5.52.22-.54.36-.48,1-.35,4.19.84,8.42.26,12.64.1l.39.49c-2.49,1.17-5.15.33-7.71.63-1.5,0-3-.64-4.48.26l-1.19.63c-.18.22-.35.45-.53.68-.85.91-.41,2.08-.63,3.12Z"/><path class="cls-1" d="M279.54,18.06h11.19v1.27H279.56Z"/><path class="cls-5" d="M286.65,44.31l0-1c.51-2.21-.45-4.51.49-6.68h1C288.16,39.29,290.21,42.32,286.65,44.31Z"/><path class="cls-5" d="M218.5,31.72c0,.4.1.81.14,1.22-4,.09-7.49,2.19-11.42,2.42a3,3,0,0,0,0-.6A64.81,64.81,0,0,1,218.5,31.72Z"/><path class="cls-1" d="M222.65,47.36a5.68,5.68,0,0,1,5.15-1c.42.11,1,.21,1,.88s-.59.7-1.06.8A6.4,6.4,0,0,1,222.65,47.36Z"/><path class="cls-4" d="M169.72,38.42h1c.13.27.25.54.38.8a1.68,1.68,0,0,0,1.24,1.29l.71.45c.77.66,1.67.4,2.54.36v.62c-1.76,3.11-2.93.25-4.19-.5A3.91,3.91,0,0,1,169.72,38.42Z"/><path class="cls-5" d="M188.07,40.11c4.17-2,8.64-2.77,13.11-3.62l.21.22a62.18,62.18,0,0,1-13.2,3.54Z"/><path class="cls-5" d="M299.92,12.81c.71,1.48,1.93,1.55,3.81.73-1,1.52-.64,3.44-2.41,3.17s-2.06-2.09-2.17-3.69Z"/><path class="cls-1" d="M152.81,26.62a6.05,6.05,0,0,0,.05.95H142C145.53,26.38,149.18,26.51,152.81,26.62Z"/><path class="cls-5" d="M243.29,45.89l-.74.8a1.39,1.39,0,0,1-1.29-1.09c1.39-1.62.38-3.54.67-5.3.16-.94-.52-2.33,1.28-2.37C243.24,40.58,243.26,43.23,243.29,45.89Z"/><path class="cls-1" d="M224.06,38a5.13,5.13,0,0,1,6.05-.05C228,39.51,226.15,39.36,224.06,38Z"/><path class="cls-5" d="M187,29.45h-1.86A5.7,5.7,0,0,1,189,25.23l1,.12c-.47.95-1.66,1.59-1.26,2.91h0a.9.9,0,0,0-1.22.62h0l-.55.63Z"/><path class="cls-5" d="M185.81,40.85c-2.85,1.52-6,2-9.15,2.61a25.16,25.16,0,0,1,9-2.74Z"/><path class="cls-4" d="M279.54,18.06v1.27l-.27,1.56a.27.27,0,0,0-.36.15v0l-1.78-.6c.3-1.43-1.86-1-1.75-2.25Z"/><path class="cls-1" d="M299.92,12.81l-.77.21c-1.06-.2-1.1-1.13-.43-1.36,1.24-.42,2.41-.68,3-2a.48.48,0,0,1,.61-.3.45.45,0,0,1,.3.3c.15.3.24.91.07,1.06C301.83,11.44,300.92,12.11,299.92,12.81Z"/><path class="cls-5" d="M278.92,21.06a.28.28,0,0,1,.35-.18h0c.07,1.46.16,2.93.23,4.39.08,1.74-.64,2.62-2.48,2.26l.84-1.79C279.85,24.51,278.26,22.51,278.92,21.06Z"/><path class="cls-1" d="M272.92,21.56c1.47,1.88.17,3.08-1.06,4.3C272.18,24.43,272.53,23,272.92,21.56Z"/><path class="cls-5" d="M232.13,14.77c.68-.23,1.26-.25,1.41.65a1,1,0,0,1-1.12.86l-.13,0V16C232.26,15.61,232.2,15.19,232.13,14.77Z"/><path class="cls-5" d="M188.19,40.25c-.65.77-1.55.52-2.38.6l-.11-.13c.64-.78,1.55-.53,2.37-.61Z"/><path class="cls-1" d="M190,25.35l-1-.12c.27-.43.29-1.06.94-1.17h0C190.67,24.4,190.27,24.88,190,25.35Z"/><path class="cls-5" d="M201.18,36.51c.13-.2.27-.46.5-.12l-.29.33Z"/><path class="cls-2" d="M232.13,14.77c.07.42.13.84.2,1.27l-25.08.23a23.77,23.77,0,0,0-6.58.08h-1.8l-2.38-.08,0-1.17Z"/><path class="cls-5" d="M196.54,15.13l0,1.17c-9.92,1-19.87.36-29.81.54l-.06-1.24h1.88l8.73-.25c2.49.41,4.92-.39,7.39-.38l7-.1Z"/><path class="cls-1" d="M166.62,15.6l.06,1.24c-5.61.27-11.24-.24-16.87.24C155.29,15.18,161,15.51,166.62,15.6Z"/><path class="cls-1" d="M184.62,14.93c-2.47,0-4.9.79-7.39.38C179.63,14,182.12,14.39,184.62,14.93Z"/><path class="cls-1" d="M200.67,16.35a23.77,23.77,0,0,1,6.58-.08A8.67,8.67,0,0,1,200.67,16.35Z"/><path class="cls-1" d="M198.92,16.38h.63C199.3,16.75,199.09,16.77,198.92,16.38Z"/><path class="cls-1" d="M168.5,15.56h-.73C168,15.27,168.24,15.26,168.5,15.56Z"/><path class="cls-2" d="M429.43,13.9a2.25,2.25,0,0,1,0,2.37c-4.57.2-9.18-.37-13.73.52-1.88-.5-3.88-1.83-5.39.68h-1.2c-.4-1.76-1.82-1.19-2.9-1.2-4.11-.05-8.23,0-12.95,0a3.7,3.7,0,0,1,4.18-1.06c3.49,1,6.85-.51,10.29-.23a2.65,2.65,0,0,0,2.57-1.19h6Z"/><path class="cls-2" d="M390.92,18.12c1.17-1.09,2.63-.69,4-.7,4.75,0,9.51,0,14.26.08h0a1.28,1.28,0,0,0,0,.55c-4.93.23-9.86,0-14.78.59C393.23,18.74,391.92,19,390.92,18.12Z"/><path class="cls-5" d="M410.31,17.51c1.51-2.51,3.51-1.18,5.39-.68C414,17.78,412.29,18.65,410.31,17.51Z"/><path class="cls-2" d="M387.24,14.51c-.47.74.13,2.06-1.08,2.2-1,.1-.85-.9-.88-1.53s-.11-1.65,1.06-1.72C387.15,13.39,387.35,13.81,387.24,14.51Z"/><path class="cls-5" d="M409.11,18a1.28,1.28,0,0,1,0-.55h1.2C410.21,18.31,410,19,409.11,18Z"/><path class="cls-1" d="M490.92,22.26c2.81-.46,5.72.6,8.48-.56,1.36.31,1.13,1.3.22,1.46a19.13,19.13,0,0,1-8.45-.09C491.05,23,491,22.51,490.92,22.26Z"/><path class="cls-5" d="M416.36,13.78H415c0-.41.18-.81.65-.81S416.29,13.38,416.36,13.78Z"/><path class="cls-1" d="M443.07,35.88c1,.38,2.1-.17,3,.54l-11.88.21C437,35.11,440.12,36.29,443.07,35.88Z"/><path class="cls-5" d="M281.31,134c1.63.32,2.35,1.36,1.55,2.78s-2.18.94-3.31.08A85.08,85.08,0,0,1,267.38,125,144.35,144.35,0,0,1,245,90.7c-4.44-9.58-7.21-19.63-9.52-29.86a7,7,0,0,1,.15-3.31c1.26,4.87,2.38,9.78,3.78,14.61a131.16,131.16,0,0,0,25,47c4.42,5.4,9.32,10.31,14.23,15.23a5.13,5.13,0,0,0,.88.8c.64.38,1.26,1.31,2,.67s-.45-1.21-.23-1.91Z"/><path class="cls-5" d="M273.55,126.78c2.26.21,2-.68.77-1.85A109.16,109.16,0,0,1,264,112.65a135.68,135.68,0,0,1-19.52-37.29l.25-.38c1.19.17,1.25,1.31,1.54,2.11a130.31,130.31,0,0,0,22,39,127.05,127.05,0,0,0,14,14.6c.62.55,1.22,1.21,2,.75.63-.37-.19-1.06,0-1.62h0c1.6.52,2.82,1.51,1.81,3.2-1.14,1.91-2.61.66-3.72-.27-1.67-1.38-3.18-2.94-4.78-4.41-1.27-1.18-1.89-1-1.61.83l-.13.13a4.2,4.2,0,0,1-2.34-2.44Z"/><path class="cls-5" d="M255.65,81.37c-1.62-1-1.86-2.72-2.42-4.26a148.28,148.28,0,0,1-5.31-18.6c-.16-.72,0-1.89-1.18-1.63s-.56,1.25-.41,2a122.26,122.26,0,0,0,17.38,42.42c.8,1.24,1.88,2.34,2.13,3.88l-.36.29c-5.94-7.1-9.56-15.48-13.23-23.83-2.7-6.13-4.33-12.71-6.33-19.13-.42-1.38-.07-2.76-.54-4.09-.34-1-.62-2.08.76-2.43a2,2,0,0,1,2.57,1.34,1.77,1.77,0,0,1,.08.4c.45,1.83.79,3.68,1.16,5.52,1.25,6.25,3.89,12.07,5.66,18.16Z"/><path class="cls-5" d="M288.52,126.73c1.16.64,1.67,1.52.63,2.59s-1.93.57-2.89-.2a102.27,102.27,0,0,1-15.06-15.44c-1.35-1.68-2.94-3.22-3.78-5.27l.46-.38c3,2.4,4.79,5.77,7.37,8.51a105.53,105.53,0,0,0,10.85,10.61c.77.62,1.79,1.83,2.3-.28Z"/><path class="cls-5" d="M244.3,80.78c-2.4-4.27-3.4-9-4.62-13.67-.82-3.12-1.92-6.23-1.45-9.68.39,1.5.87,3,1.15,4.49a107.06,107.06,0,0,0,4.26,15.72,6.75,6.75,0,0,1,.62,3.16Z"/><path class="cls-5" d="M243.73,71.41c-1.64-4.69-3.41-9.37-3.09-14.48C241.47,61.8,243.25,66.45,243.73,71.41Z"/><path class="cls-5" d="M242.82,56.51c1.72,5.45,2.67,11.11,4.3,16.59C244.68,67.84,243.72,62.18,242.82,56.51Z"/><path class="cls-5" d="M244.26,80.8c1.88,2.31,2.51,5.16,3.36,7.91-1.62-2.43-3.46-4.76-3.32-7.93Z"/><path class="cls-5" d="M261,92.72c1.5,2,3.23,3.93,3.56,6.59h0A12,12,0,0,1,261,92.78Z"/><path class="cls-5" d="M269.39,105.86c-2.31-.39-2.59-2.32-3.09-4.08l.12-.12a8.68,8.68,0,0,1,2.93,4.23Z"/><path class="cls-5" d="M282.53,121.38a4.1,4.1,0,0,1,3,3l-.06.07a4.18,4.18,0,0,1-3-3Z"/><path class="cls-5" d="M250.92,83.75c1.24.73,1.52,1.91,1.76,3.72a4.9,4.9,0,0,1-1.81-3.67Z"/><path class="cls-5" d="M280.13,119a2.79,2.79,0,0,1,2.4,2.37h0a2.79,2.79,0,0,1-2.37-2.4Z"/><path class="cls-5" d="M265.86,105.21a4.27,4.27,0,0,1,2,2.82c-.16.12-.31.25-.46.38a5,5,0,0,1-1.92-2.91Z"/><path class="cls-5" d="M252.65,98.7c-1-.58-1.4-1.51-1.73-3.27,1.31,1.19,1.77,2.09,1.71,3.29Z"/><path class="cls-5" d="M260.37,101.73c-1.17-.22-1.42-1.08-1.56-2.36a2.83,2.83,0,0,1,1.61,2.32Z"/><path class="cls-5" d="M258,87.37c-1.21-.67-1.29-1.8-1.19-3h0a2.88,2.88,0,0,1,1.21,3Z"/><path class="cls-5" d="M273.54,111.26c-1.21,0-1.64-.74-1.81-1.78h.06a1.93,1.93,0,0,1,1.76,1.82Z"/><path class="cls-5" d="M250.83,83.8c-.83-.64-1-1.55-1.22-2.78,1.4.74,1.21,1.79,1.27,2.73Z"/><path class="cls-5" d="M256.82,84.38c-1.34-.63-1.25-1.82-1.17-3h0a4.2,4.2,0,0,1,1.2,3Z"/><path class="cls-5" d="M274.76,113a1.93,1.93,0,0,1,1.78,1.81h0c-1.17,0-1.67-.72-1.8-1.78Z"/><path class="cls-5" d="M258.6,88a3.78,3.78,0,0,1,1.21,3h0c-1.21-.68-1.31-1.79-1.18-3Z"/><path class="cls-5" d="M248.92,78.35c-.95-.78-1.29-1.31-.82-2.07C248.92,76.64,248.92,77.29,248.92,78.35Z"/><path class="cls-5" d="M255,102.89a2.11,2.11,0,0,1-1.2-2.39h0a2.18,2.18,0,0,1,1.19,2.39Z"/><path class="cls-5" d="M252.63,109.51c.5.28,1,.61.92,1.27,0,.07-.3.22-.39.18-.62-.32-.46-.94-.5-1.48Z"/><path class="cls-5" d="M261,92.78c-1.12-.15-1.14-1-1.16-1.84h0A1.71,1.71,0,0,1,261,92.71Z"/><path class="cls-5" d="M249.08,91.51c-.64-.3-1.2-.64-.89-1.54,1,.15.75,1,.85,1.57Z"/><path class="cls-5" d="M265.19,99.9a2.15,2.15,0,0,1,1.23,1.76l-.12.12c-1-.22-1.17-1-1.12-1.86Z"/><path class="cls-5" d="M262.14,105.09c-.1-.15-.29-.29-.29-.43,0-.35.26-.44.52-.25a.62.62,0,0,1,.2.48C262.56,105,262.29,105,262.14,105.09Z"/><path class="cls-5" d="M257.85,97.1c-.15.09-.32.25-.42.22a.55.55,0,0,1-.33-.38c0-.36.2-.49.5-.31C257.73,96.71,257.77,96.94,257.85,97.1Z"/><path class="cls-5" d="M248.31,102.51c.15.09.37.15.42.27s-.08.3-.13.45c-.15-.08-.37-.13-.43-.25S248.25,102.67,248.31,102.51Z"/><path class="cls-5" d="M258,117.21c-.8,0-1.11-.48-1.19-1.18h0a1.05,1.05,0,0,1,1.2.88,1.5,1.5,0,0,1,0,.3Z"/><path class="cls-5" d="M271.16,108.27c-.85.06-1.14-.45-1.23-1.17l.1-.08C270.79,107.08,271.09,107.58,271.16,108.27Z"/><path class="cls-5" d="M263.92,107.11c-.53,0-.92-.22-.92-.82a.25.25,0,0,1,.19-.2c.62,0,.72.48.78,1Z"/><path class="cls-5" d="M261,121.39a1.7,1.7,0,0,1-1.19-1.79h0a1.69,1.69,0,0,1,1.18,1.8Z"/><path class="cls-5" d="M268.18,120.81c-.52,0-.93-.15-1-.76a.29.29,0,0,1,.19-.2c.61,0,.72.47.77,1Z"/><path class="cls-5" d="M262.21,122.58a1.14,1.14,0,0,1-1.19-1.07v-.12h0a1,1,0,0,1,1.2,1.19Z"/><path class="cls-5" d="M266.92,111.27c-.54,0-1-.17-.94-.8,0-.07.12-.21.18-.21.65,0,.75.48.79,1Z"/><path class="cls-5" d="M268.19,113c.78,0,1.09.49,1.21,1.18l-.11.11a1.17,1.17,0,0,1-1.13-1.21v-.06Z"/><path class="cls-5" d="M288.4,126.87c-.47-.06-.94-.13-1-.73,0-.07.09-.23.14-.23.54,0,.8.38,1,.82Z"/><path class="cls-5" d="M265.77,117.84c.44.17.82.39.83.93,0,0-.17.14-.23.13-.56-.16-.61-.61-.57-1.09Z"/><path class="cls-5" d="M284.92,137.56l.39-1,.37.21-.8.74Z"/><path class="cls-5" d="M269.92,107.1a1.12,1.12,0,0,1-.54-1.24h0a1.13,1.13,0,0,1,.67,1.13Z"/><path class="cls-5" d="M257.43,106.51a1,1,0,0,1,.58,1.21h0a1.06,1.06,0,0,1-.61-1.19Z"/><path class="cls-5" d="M264,107.06a1,1,0,0,1,.57,1.21h0a1,1,0,0,1-.63-1.16Z"/><path class="cls-5" d="M251.44,107.69a1.21,1.21,0,0,1,.59,1.19h0A1.18,1.18,0,0,1,251.44,107.69Z"/><path class="cls-5" d="M258.6,108.28a1,1,0,0,1,.6,1.19h0a1.09,1.09,0,0,1-.59-1.2Z"/><path class="cls-5" d="M271.16,108.27a1.1,1.1,0,0,1,.63,1.16h-.06a1,1,0,0,1-.57-1.21Z"/><path class="cls-5" d="M260.4,111.27a1.08,1.08,0,0,1-.59-1.21h0a1,1,0,0,1,.61,1.18Z"/><path class="cls-5" d="M273.55,111.25a1,1,0,0,1,.6,1.19h0A1,1,0,0,1,273.55,111.25Z"/><path class="cls-5" d="M268.16,113.05a1,1,0,0,1-.58-1.2h0a1,1,0,0,1,.62,1.17Z"/><path class="cls-5" d="M255.64,114.22c-.52-.23-.59-.69-.59-1.19h0A1.07,1.07,0,0,1,255.64,114.22Z"/><path class="cls-5" d="M256.84,116a1.18,1.18,0,0,1-.59-1.21h0a1.11,1.11,0,0,1,.59,1.2Z"/><path class="cls-5" d="M278.31,117.25a.93.93,0,0,1-.6-1.17s0,0,0,0h0a1.06,1.06,0,0,1,.62,1.17Z"/><path class="cls-5" d="M273.55,119a1,1,0,0,1,.6,1.19h0a1,1,0,0,1-.59-1.2Z"/><path class="cls-5" d="M247.74,74.72l-.19.42c-.06-.07-.16-.15-.15-.2a2.08,2.08,0,0,1,.19-.43Z"/><path class="cls-5" d="M249.54,79.51l-.21.44c0-.07-.16-.15-.15-.21a2.44,2.44,0,0,1,.19-.44Z"/><path class="cls-5" d="M253.82,90.37l-.45-.62.32-.2.18.78Z"/><path class="cls-5" d="M270.57,123.79a1,1,0,0,1-.6-1.19h0a1,1,0,0,1,.59,1.2Z"/><path class="cls-5" d="M262.78,123.22l.49.54-.31.17c0-.25-.1-.5-.14-.75Z"/><path class="cls-5" d="M285.53,124.35l.74.23-.21.33-.59-.49Z"/><path class="cls-5" d="M249,91.56l.46.58-.31.16a6.49,6.49,0,0,0-.11-.77Z"/><path class="cls-5" d="M256.68,95.15l-.33.17c-.05-.17-.11-.34-.15-.52s.05-.37.26-.13A2.09,2.09,0,0,1,256.68,95.15Z"/><path class="cls-5" d="M245.49,97.51l-.44-.62c.69-.13.27.44.41.65Z"/><path class="cls-5" d="M278.33,131.56l.77.18-.19.34-.59-.52Z"/><path class="cls-5" d="M253.25,99.9a1.13,1.13,0,0,1-.6-1.2h0C253.22,98.91,253.28,99.39,253.25,99.9Z"/><path class="cls-5" d="M280.72,133.34l-.77-.14.17-.34.59.5Z"/><path class="cls-5" d="M260.42,101.69a1.11,1.11,0,0,1,.61,1.18h0a1,1,0,0,1-.61-1.19Z"/><path class="cls-5" d="M256.22,104.69a1.09,1.09,0,0,1,.6,1.2h0a1,1,0,0,1-.59-1.19Z"/><path class="cls-5" d="M279.38,139.86l-.09.24-.26-.27.19-.18Z"/><path class="cls-5" d="M292.68,140.51a1.12,1.12,0,0,1,.59-1.18h0a1.14,1.14,0,0,1-.59,1.19Z"/><path class="cls-5" d="M252,108.88l.6.6h0Z"/><path class="cls-5" d="M265.19,108.86l.27.34c-.07,0-.17,0-.21-.06a.9.9,0,0,1-.07-.27Z"/><path class="cls-5" d="M259.81,110.06l-.59-.6h0l.61.59Z"/><path class="cls-5" d="M265.18,99.92l-.59-.61h0c.39,0,.55.24.6.59Z"/><path class="cls-5" d="M260.42,111.24l.59.61h0l-.6-.59Z"/><path class="cls-5" d="M267,111.24l.58.62h0c-.2-.2-.41-.39-.62-.58Z"/><path class="cls-5" d="M253.84,100.51l-.59-.6h0l.6.59Z"/><path class="cls-5" d="M254.45,112.43l-.26-.26s.14,0,.16.06a.94.94,0,0,1,.06.24Z"/><path class="cls-5" d="M261,111.85l.58.61h0l-.61-.58Z"/><polygon class="cls-5" points="255.31 93.16 255.26 92.97 255.41 92.99 255.31 93.16"/><path class="cls-5" d="M255.05,113l-.6-.6h0l.61.6Z"/><path class="cls-5" d="M261.59,112.51l.27.31c-.06,0-.16,0-.18-.07a.77.77,0,0,1-.07-.26Z"/><path class="cls-5" d="M274.72,113.07l-.58-.62h0l.61.58Z"/><polygon class="cls-5" points="254.61 91.82 254.78 91.75 254.76 91.93 254.61 91.82"/><path class="cls-5" d="M255.84,94.3l.16-.18a.91.91,0,0,1,.17.17c.14.25.07.33-.19.21C255.92,94.51,255.92,94.37,255.84,94.3Z"/><path class="cls-5" d="M262.79,114.25l-.38-.26c.4-.36.31.08.39.24Z"/><path class="cls-5" d="M256.25,114.82l-.61-.6h0l.6.6Z"/><path class="cls-5" d="M262.8,114.23l.6.6h0Z"/><path class="cls-5" d="M269.4,114.21l.35.31c-.34.35-.36,0-.46-.2Z"/><path class="cls-5" d="M253.92,90.33l.38.27c-.39.39-.33-.07-.43-.23Z"/><path class="cls-5" d="M263.4,114.83l.59.6h0a.58.58,0,0,1-.6-.56v0Z"/><path class="cls-5" d="M277.15,115.42a.59.59,0,0,1-.63-.51v-.06h0l.58.62Z"/><path class="cls-5" d="M264,115.43l.24.33c-.06,0-.16,0-.19-.06a.8.8,0,0,1-.05-.26Z"/><path class="cls-5" d="M270.56,116l-.25-.33c.07,0,.16,0,.19.07a.81.81,0,0,1,.05.27Z"/><path class="cls-5" d="M277.73,116a.54.54,0,0,1-.58-.5.2.2,0,0,1,0-.11h0l.61.58Z"/><polygon class="cls-5" points="253.06 88.27 252.9 88.35 252.92 88.16 253.06 88.27"/><path class="cls-5" d="M270.55,116l.63.57h0l-.58-.62Z"/><path class="cls-5" d="M255,102.9l.31.3h-.2a1.43,1.43,0,0,1-.09-.27Z"/><path class="cls-5" d="M265.19,117.22l-.3-.29h.19a.82.82,0,0,1,.1.26Z"/><path class="cls-5" d="M271.18,116.61l.58.61h0l-.61-.59Z"/><path class="cls-5" d="M261,102.87l.36.27c-.36.35-.31-.07-.41-.22Z"/><path class="cls-5" d="M265.8,117.81l-.61-.59h0l.59.61Z"/><path class="cls-5" d="M271.76,117.22l.59.61h0l-.6-.58Z"/><path class="cls-5" d="M278.92,117.84l-.6-.59h0l.59.61Z"/><path class="cls-5" d="M272.92,118.45l-.57-.63h0l.62.57Z"/><path class="cls-5" d="M279.51,118.43l-.6-.59h0l.59.6Z"/><path class="cls-5" d="M259.23,119l-.26-.26s.13,0,.15.07a.62.62,0,0,1,.07.23Z"/><path class="cls-5" d="M273,118.4l.58.62h0l-.63-.57Z"/><path class="cls-5" d="M280.11,119l-.6-.6h0Z"/><path class="cls-5" d="M259.19,119l.61.59h0l-.6-.6Z"/><path class="cls-5" d="M256.24,104.68l-.31-.31h.2a1.07,1.07,0,0,1,.09.27Z"/><path class="cls-5" d="M258,87.35l.57.63h0c-.39,0-.55-.23-.62-.57Z"/><path class="cls-5" d="M274.15,120.21l.6.59h0l-.6-.6Z"/><path class="cls-5" d="M268.77,121.4l-.59-.59h0C268.38,121,268.57,121.2,268.77,121.4Z"/><path class="cls-5" d="M274.75,120.8l.61.59h0l-.59-.6Z"/><path class="cls-5" d="M269.37,122l-.6-.6h0Z"/><path class="cls-5" d="M275.36,121.39l.59.6h0l-.6-.6Z"/><path class="cls-5" d="M250.27,105.86l-.26-.13.22.16Z"/><path class="cls-5" d="M269.36,122l.6.6h0Z"/><path class="cls-5" d="M275.92,122l.59.61h0l-.6-.59Z"/><path class="cls-5" d="M262.18,122.62l.6.6h0l-.61-.6Z"/><path class="cls-5" d="M250.23,105.89l.26.14-.22-.17Z"/><path class="cls-5" d="M276.54,122.6l.61.58h0l-.59-.61Z"/><path class="cls-5" d="M256.82,105.89l.61.58h0c-.19-.2-.39-.4-.58-.61Z"/><path class="cls-5" d="M277.15,123.18l.58.62h0l-.61-.58Z"/><polygon class="cls-5" points="250.06 93.65 249.91 93.71 249.93 93.54 250.06 93.65"/><path class="cls-5" d="M270.55,123.81a.58.58,0,0,1,.59.57v0h0l-.6-.59Z"/><path class="cls-5" d="M278.32,124.41l-.59-.61h0l.61.58Z"/><path class="cls-5" d="M271.76,125c-.2-.2-.4-.4-.59-.61h0c.21.19.41.39.61.59Z"/><path class="cls-5" d="M278.92,125c-.19-.21-.39-.41-.58-.61h0l.61.58Z"/><path class="cls-5" d="M245.46,97.51l.26.23h-.14a1,1,0,0,1-.09-.21Z"/><path class="cls-5" d="M271.75,125l.62.58h0l-.58-.61Z"/><path class="cls-5" d="M279.5,125.61l-.6-.6h0Z"/><path class="cls-5" d="M265.2,126.17l-.27-.28c.06,0,.14,0,.17.06a1,1,0,0,1,.07.25Z"/><path class="cls-5" d="M272.92,126.22l-.58-.62h0l.62.57Z"/><path class="cls-5" d="M280.09,126.21l-.59-.6h.05l.6.6Z"/><path class="cls-5" d="M265.17,126.2l.59.6h0l-.6-.59Z"/><path class="cls-5" d="M273.54,126.79l-.62-.57.07-.07.56.63Z"/><path class="cls-5" d="M258,117.24l.26.27s-.13,0-.16-.06a1.09,1.09,0,0,1-.07-.24Z"/><path class="cls-5" d="M265.76,126.8l.6.59h0l-.6-.6Z"/><path class="cls-5" d="M280.73,126.76l.62.59-.06.06-.6-.61Z"/><path class="cls-5" d="M251.47,107.66l-.29-.25h.15a1.63,1.63,0,0,1,.11.23Z"/><path class="cls-5" d="M267,128l-.59-.6h0l.6.6Z"/><path class="cls-5" d="M281.35,127.35l.4.24c-.33.38-.35,0-.46-.18Z"/><polygon class="cls-5" points="258.44 98.42 258.26 98.5 258.28 98.31 258.44 98.42"/><path class="cls-5" d="M266.92,128l.6.6h0Z"/><path class="cls-5" d="M267.56,128.59l.6.59h0l-.59-.6Z"/><path class="cls-5" d="M283.68,129.2l-.4-.22c.33-.39.34,0,.44.18Z"/><path class="cls-5" d="M268.16,129.18l.59.6h0l-.6-.59Z"/><path class="cls-5" d="M276,129.1l.53.66h0l-.65-.55Z"/><path class="cls-5" d="M284.27,129.79l-.59-.59h0Z"/><path class="cls-5" d="M269.38,130.35l-.6-.6h0Z"/><path class="cls-5" d="M277.13,130.37l-.6-.59h0l.6.6Z"/><path class="cls-5" d="M269.35,130.38l.6.6h0Z"/><path class="cls-5" d="M277.14,130.36c.19.21.39.41.58.61h0l-.6-.59Z"/><path class="cls-5" d="M269.92,131l.6.59h0l-.59-.6Z"/><path class="cls-5" d="M278.32,131.56l-.59-.6h0l.61.59Z"/><path class="cls-5" d="M270.55,131.57l.27.3c-.07,0-.16,0-.19-.07a1.14,1.14,0,0,1-.06-.25Z"/><path class="cls-5" d="M258,107.68l.59.6h0l-.61-.59Z"/><path class="cls-5" d="M287.92,133.37a.94.94,0,0,1,.1-.23h.17l-.31.22Z"/><path class="cls-5" d="M272.92,134l-.31-.26h.19a.9.9,0,0,1,.12.24Z"/><path class="cls-5" d="M281.31,134l-.59-.61h0l.6.59Z"/><path class="cls-5" d="M287.86,133.33l-.21.31v-.16a.65.65,0,0,1,.22-.11Z"/><path class="cls-5" d="M272.92,134l.6.6h0Z"/><path class="cls-5" d="M273.55,134.51l.6.59h0l-.59-.6Z"/><path class="cls-5" d="M286.71,135.16l.21-.29V135a.68.68,0,0,1-.21.1Z"/><path class="cls-5" d="M274.74,135.74l-.6-.59h0l.59.61Z"/><path class="cls-5" d="M286.67,135.13a2.25,2.25,0,0,1-.08.24h-.18l.3-.26Z"/><path class="cls-5" d="M275.34,136.34l-.6-.6h0l.6.59Z"/><path class="cls-5" d="M275.34,136.34l.61.59h0c-.19-.2-.39-.4-.58-.61Z"/><polygon class="cls-5" points="250.54 94.97 250.48 94.78 250.63 94.8 250.54 94.97"/><path class="cls-5" d="M275.92,136.93l.59.59h0l-.6-.6Z"/><path class="cls-5" d="M276.54,137.51l.6.6h0Z"/><path class="cls-5" d="M277.14,138.12l.62.58v.06c-.2-.21-.4-.41-.59-.62Z"/><path class="cls-5" d="M293.92,138.74l.25-.32v.2a.77.77,0,0,1-.25.1Z"/><path class="cls-5" d="M277.76,138.7l.3.33-.35-.27Z"/><path class="cls-5" d="M293.84,138.72l-.6.59h0l.6-.61Z"/><path class="cls-5" d="M264.58,108.27l.61.59h0l-.59-.6Z"/><path class="cls-5" d="M292.65,140.51l-.61.6h0l.61-.61Z"/><path class="cls-5" d="M280.15,126.16l.58.6h0l-.6-.59Z"/><path class="cls-2" d="M278.92,21.06c-.66,1.49.93,3.49-1,4.69-.07-1.1-.24-2.26-1.3-2.75-1.33-.62-.1-1.3-.21-1.92l.77-.62Z"/><path class="cls-2" d="M243.29,45.89q0-4-.08-8l32.1-2c3.07-.19,6.14-.4,9.22-.49,1,0,2.33-.48,2.56,1.22-.94,2.17,0,4.47-.49,6.68-7.54,1.39-15.21.84-22.81,1.5A182.34,182.34,0,0,1,243.29,45.89Z"/><path class="cls-2" d="M190,25.35c.26-.47.66-1-.11-1.32,7.16-.15,14.33-.26,21.49-.48a11.78,11.78,0,0,1,5.47.88c.66.53,1.75-.24,2.25.76l-15.39.17c-2.06-.08-4.13-.4-6.16.29-3.18.05-6.53-.47-8.81,2.61C188.35,26.94,189.54,26.3,190,25.35Z"/><path class="cls-2" d="M228.69,28.77c-.84.27-1.66.56-2.51.79s-2.36,1.41-2.77-.47c-.28-1.34-.91-3.31,1.69-3.44C227,25.87,229.51,25.41,228.69,28.77Z"/><path class="cls-2" d="M218.5,31.72a64.37,64.37,0,0,0-11.25,3c-5.15-2.88-9.86.12-14.67,1.23s-9.45,2.85-14.32,3.72c2.14-2.27-.46-4-.72-5.94,2.56-.3,5.22.54,7.71-.63,2.22-1,3.52-3.09,5.14-4.76a5.83,5.83,0,0,1,4.68-1.9c2.85.07,5.7-.07,8.55-.13h1.27c4.68-.13,9.35-.28,14-.38,1.44,0,3.44-.46,3.66,1.51.21,1.81-.34,3.8-3,3.85A3.42,3.42,0,0,0,218.5,31.72Z"/><path class="cls-5" d="M177.54,33.77c.26,2,2.86,3.67.72,5.94h-.77l-.59-.48c.83-3.74.33-4.42-3.38-4.59l-.46-.58C174.51,33.13,176,33.75,177.54,33.77Z"/><path class="cls-5" d="M175.59,41.31c-.87,0-1.77.3-2.54-.36l.48-.57h1.79l.32.42A2.94,2.94,0,0,0,175.59,41.31Z"/><path class="cls-5" d="M176.85,40.24a1.41,1.41,0,0,1-1.21.6l-.32-.42,1.13-.63Z"/><path class="cls-5" d="M177.49,39.68l-.64.56-.4-.45.44-.59Z"/><path class="cls-5" d="M197.56,25.65c2-.69,4.1-.37,6.16-.29a2.09,2.09,0,0,0,0,.5Z"/><path class="cls-5" d="M204.92,26.32h-1.27a1.51,1.51,0,0,0,0-.52Z"/><path class="cls-2" d="M187.54,28.87c.24-.54.61-.83,1.22-.62C188.5,28.74,188.26,29.27,187.54,28.87Z"/><path class="cls-2" d="M186.92,29.51l.62-.63C187.74,29.41,187.55,29.64,186.92,29.51Z"/><path class="cls-5" d="M171.09,39.26c-.13-.26-.25-.53-.38-.8.22-1-.22-2.21.63-3.12l.54.44a3.82,3.82,0,0,0-.22,3Z"/><path class="cls-5" d="M171.86,34.66l1.2-.63.46.58-1.11.66Z"/><path class="cls-5" d="M171.34,35.34c.18-.23.35-.46.53-.68l.54.61-.53.51Z"/><path class="cls-5" d="M172.34,40.51a1.69,1.69,0,0,1-1.25-1.24l.57-.48c.36.42.72.84,1.09,1.25Z"/><path class="cls-5" d="M173.05,41l-.71-.45.41-.47.78.35Z"/><path class="cls-4" d="M173.53,40.38l-.78-.35c-.37-.41-.73-.83-1.09-1.25a3.82,3.82,0,0,1,.22-3l.53-.51,1.11-.66c3.71.17,4.21.85,3.38,4.59l-.45.59-1.13.63Z"/></g><path class="cls-7" d="M184,74l-2.72-1.7"/><line class="cls-8" x1="212.82" y1="68.43" x2="203.13" y2="73.94"/></g></g></g></svg>