<svg xmlns="http://www.w3.org/2000/svg" viewBox="0 0 188.8 899.78"><defs><style>.cls-1{fill:#282013;}.cls-2{fill:#665d50;}.cls-3{fill:#c1c3c2;}.cls-4{fill:#6b655c;}.cls-5{fill:#9e9a92;}.cls-6{fill:#959188;}.cls-7{fill:#8d897f;}.cls-8{fill:#7b776d;}.cls-9{fill:#837f75;}.cls-10{fill:#afafab;}.cls-11{fill:#aaa8a3;}.cls-12{fill:#53442c;}.cls-13{fill:#3c301e;}</style></defs><g id="Calque_2" data-name="Calque 2"><g id="Calque_1-2" data-name="Calque 1"><g id="Calque_2-2" data-name="Calque 2"><g id="Calque_1-2-2" data-name="Calque 1-2"><path class="cls-1" d="M78.89,700.78l-3.78.58c1.78-3.54.78-5.46-3.22-5.65l-9.81-.42A69.22,69.22,0,0,0,48.89,695l-2.74.38a10.38,10.38,0,0,0-5.16-.34l-5-.14c-1.75-1.86-3.33-.23-5,.26-3.62,1.08-6.94,3.07-10.78,3.44-1.95.19-2.54,1.75-3.2,3.24-1.08-1.12-1.55-4.86-1.15-9.15l2.27-.27c-.42-1-1.3-.56-2-.7-2.39,0-4.78-2.25-7.17,0-1.56-.19-3.45-.88-3,2L6.93,699C3,697.2,2.81,692.52,0,689.82v-7c7.42,7.66,17.32,7,26.68,7.67,7.37.57,14.8.4,22.2.55a1,1,0,0,0,.11.82c.22.23.45.68.65.67,15.25-.72,30.25,3.77,45.48,2.84,7.25-.44,14.48-1.15,21.72-1.73.79.12,1.59.3,2.1-.59l5.8-.61c2.76.82,5.53-.12,8.29.06,1.63.37,3.36,1,3.89-1.47,11.78-.42,23.59.54,35.34-1a46.12,46.12,0,0,0,12.44-3.25c.78,3.49-1.85,6.76-.67,10.28L184,697c-2-.29-2.39-1.4-1.68-3.16.36-.89.85-2.11-.39-2.48s-2.13.89-2.56,1.87c-1.09,2.49-.45,5.16-.45,7.77a1.47,1.47,0,0,1-1.7,1.13c-2.64-2.16.34-4.62-.36-6.93-.29-1-.26-2.06-1.49-2.22a2.55,2.55,0,0,0-1.82.4,1.88,1.88,0,0,0-.32,2.64l0,0c2.22,2,1.35,4.59,1.63,7a4,4,0,0,1-3.06.76c-2.08-1-4.18-1.5-4.19-4.91,0-3.71-5.36-5.62-9.74-3.56,5,1.45,7.66,4.31,7,9.44h-2c-1.49-1.53-3.42-1-5.11-.86-3.05.19-4.25-1-3.82-4,1.38-3.44-1-4.6-3.49-4.75-2-.12-1.77,1.46-.53,2.67-.2,2.36,3.07,4.22,1,6.85h-3c-.44-2.21-2.26-2.46-4-2.8-.14-.56.2-1.48-.94-1.29a.53.53,0,0,0-.34.33c-.2,1.15.74.79,1.29,1-2.41,2-5.25.55-7.86,1-3.16-2-3.84-7-8.5-7H112.79c-5.47-1.26-2.53,2.81-3,4.73-1.2.19-2.4.43-3.38-.59H85.34c5.46,2.85,11.12,2.1,15.74,4.82l-.09,0-7.1-.18c-1.61-1.71-3.76-.59-5.6-1.07-1.5-.38-3-.67-4,.83-.61.9,1.63,3.62-1.42,2.8-1.81-.49-.46-2.48-.45-3.86C82.46,701.36,82.23,698.9,78.89,700.78ZM29,693.26l-5.46-1c1.32,2,2.88,1.64,5.49,1Zm118,1.91a7.36,7.36,0,0,0-1.46-.27,1.8,1.8,0,0,0-.8.32c.25.8.93.54,1.47.51.28,0,.49-.3.85-.56Z"/><path class="cls-2" d="M79.78,50.9c2.39-14.54,6.44-28.7,10.83-42.78.83-2.68,1.53-5.41,2.28-8.12h1q3,11,6.08,22c-3.46.83-6.39,2-3.86,6.42a2.75,2.75,0,0,1,.1,2.33,19.81,19.81,0,0,0,.09,13.6c1,2.7,4.62,6.63,3,7.76-5.48,3.75-3.68,7.42-1.53,11.61a.82.82,0,0,1,0,.49c-2.47,6.91,1.83,13.25,2,20,.09,3.37-.5,4.44-2.76,5.75a27.52,27.52,0,0,0-2.89-12.14c-1.71,7,1,14.23-1.13,21.16-2.81.41-2,2.63-2,4.26,0,2.54-1.11,2.78-3,1.73v-2c-.2-5.75,1.34-11.29,2-17-.2-3.23,2.41-6.83-1.32-9.62-.4-.3,0-.79.53-1.08,3.44-2,3.23-3.88.32-6.48-2.1-1.9-3.21-4.43,1.13-5.62,1.63-.45,1.78-1.86.42-2.94-.83-.66-2.36-.09-2.89-1.52-1.2-3.27-2.34-3.37-3.68,0-.4,1-1.46,2.32-2.63,1.72A2.38,2.38,0,0,1,81,57.19l.12-.19C82.63,54.54,81.1,52.8,79.78,50.9Zm11.5-25.68c.28.13.62.4.81.32a.85.85,0,0,0,.34-.77.85.85,0,0,0-.77-.33c-.2.12-.26.55-.38.82Z"/><path class="cls-3" d="M90.89,899.78l-6.06-19c4.44,2.07,9.46-.19,13.89,1.87-2.81,5.4-2.68,11.81-5.83,17.1Z"/><path class="cls-2" d="M184,697c-1.18-3.52,1.45-6.79.67-10.28,1.35-1,1.69-3.41,4.1-2.92v6C186.24,691.59,187,695.56,184,697Z"/><path class="cls-4" d="M96.94,90c2.26-1.31,2.85-2.38,2.76-5.75-.17-6.79-4.47-13.13-2-20a.82.82,0,0,0,0-.49c-2.15-4.19-4-7.86,1.53-11.61,1.64-1.13-2-5.06-3-7.76a19.81,19.81,0,0,1-.09-13.6,2.75,2.75,0,0,0-.1-2.33c-2.53-4.46.4-5.59,3.86-6.42a314.31,314.31,0,0,1,12.8,68.11c3.6,51.42,2.28,102.94,1.86,154.41-.46,55.65-.3,111.3-.51,167,0,1.49-.12,3-.18,4.48-2-.65-3.89-3.08-6.27-.29-.62.73-2.11.48-2.14-1.39,0-1.69-1.6-1.19-2.66-1.32h0v-1c-.33-2-1.24-3.84-.87-5.91,1.22-.29,2.47-.58.86-2.06v-2c1.61-1.46.39-1.76-.84-2.07.29-2,.57-4,.86-5.93,4-3.33,1.69-6.66,0-10a67.47,67.47,0,0,1-.75-18.82,64.22,64.22,0,0,0,.61-13.36c-1-10.6.08-21.18.11-31.76-.65-8-.09-16.14-.14-24.15,0-7.19-.48-14.51,0-21.81.82-13.93.25-27.93.24-41.91a25.28,25.28,0,0,0-2.17-9.13,23.71,23.71,0,0,1-.75-8c.47-1.56,3.59,1.57,2.8-1.29-.89-3.26,3.18-8-2.76-9.79v-2.87c.49-.28,1.31-.48,1.4-.86.25-1-.71-1.08-1.4-1.27,0-1.66-.08-3.31-.11-5,.32-11.58,1.56-23.23.73-34.73-1-13.43,0-26.84-.85-40.23C99.21,109.28,97.89,99.63,96.94,90Z"/><path class="cls-5" d="M113.56,560.84q.14,37.85.25,75.7c0,8.8,0,17.61-.07,26.41a30,30,0,0,0,4.24,16.6c-1.4,2-5.8,1.77-4.76,5.31.94,3.2,4.33,1.11,6.33,1.88s6,1,5,5.25c-1.53-.21-2-2.15-3.74-2.14-7.57.06-14.08-3.61-21-6v-7a18.7,18.7,0,0,0,.11-13l-.07-3a153.33,153.33,0,0,0-.09-39c.61-3.39-1-6.58-.84-9.94.49-.28,1.32-.47,1.41-.85.25-1-.7-1.09-1.41-1.28.27-2,1.21-3.86.82-5.93,1.62-1.42.45-1.76-.8-2.08q.06-20,.13-40C103.89,561.35,108.89,563.49,113.56,560.84Z"/><path class="cls-6" d="M113.56,560.84c-4.65,2.65-9.63.51-14.43,1,0-1-.07-1.91-.11-2.87,1.25-.33,2.41-.7.77-2.09a80.51,80.51,0,0,0-.58-9.31c-.46-4.18-1.06-8.54.67-12.68,4.77,1.67,5.54-1.49,6-5h0c2.43.2,4.29-.2,4-3.34-.24-2.76,1.78-2.66,3.65-2.68Z"/><path class="cls-7" d="M105.89,529.9c-.46,3.51-1.23,6.67-6,5-.07-2.66-1.52-5.21-.61-7.94.79-.1,2,0,2.1-.83.19-1.5-1.26-1.07-2.11-1.29-1-10,1.26-20,.75-30,4.49-.8,8.28,4.5,8.2,5.32-.55,5.38,3.07,3.28,5.28,3.67v2.05c-.3.09-.84.14-.87.29-.16.72.5.53.87.66v17c-1.87,0-3.89-.08-3.65,2.68.26,3.14-1.6,3.54-4,3.34.15-.85,1.35-1.72.14-2.52-.26-.17-1.3.33-1.52.76C103.78,529.5,104.89,529.69,105.89,529.9Z"/><path class="cls-8" d="M114,460.9c0,8-.09,15.94-.1,23.9,0,1.5,0,2.92-1.18,4.07-4.22.58-8.59-.68-12.73,1v-25l1-1.05c.92.29,2.39,1.09,2.67.79C106.47,461.56,111.21,464,114,460.9Z"/><path class="cls-4" d="M114,460.9c-2.76,3.07-7.5.66-10.34,3.73-.28.3-1.75-.5-2.67-.79.45-1.25,1.5-2.7-1-3l-.24.15V444.87l.17.08c3.12.22,3.06-1.88,2.93-4,2-2.26,4.65,3.69,6.8-.78,1.2-2.48,2.5-4.68,2.32-7.53-.07-1.19.93-1.58,2-1.7Z"/><path class="cls-8" d="M114,430.9c-1,.12-2,.51-2,1.7.18,2.85-1.12,5-2.32,7.53-2.15,4.47-4.83-1.48-6.79.78h-.92v-20c.75-.17,2.11-.53,1.53-1.23-1.87-2.24-.58-4.5-.55-6.75,1.06.13,2.63-.37,2.66,1.32,0,1.87,1.52,2.12,2.14,1.39,2.38-2.79,4.23-.36,6.27.29v2c-3.72,2.33-2,4.68,0,7Zm-5.34-12.56c-.12.27-.4.62-.32.81s.51.26.79.38c.12-.28.4-.62.32-.82s-.51-.28-.79-.39Z"/><path class="cls-9" d="M100,489.9c4.14-1.68,8.51-.42,12.73-1,1.74,4.91,1.07,10,.8,15-2.21-.39-5.83,1.71-5.28-3.67.08-.82-3.71-6.12-8.2-5.32C100,493.19,100,491.53,100,489.9Z"/><path class="cls-7" d="M124.56,692c1-4.2-2.88-4.43-5-5.25s-5.39,1.32-6.33-1.88c-1-3.54,3.36-3.31,4.76-5.31,4.37,4.57,9.82,7.72,14.9,11.35l.15,1.6c-2.76-.18-5.53.76-8.29-.06Z"/><path class="cls-4" d="M113.89,424.9c-2-2.35-3.7-4.7,0-7C113.94,420.22,113.94,422.56,113.89,424.9Z"/><path class="cls-2" d="M133,692.5l-.14-1.6,4,.13C136.39,693.53,134.66,692.9,133,692.5Z"/><path class="cls-9" d="M113.52,506.9c-.37-.13-1,.06-.87-.66,0-.15.57-.2.87-.29A1,1,0,0,1,113.52,506.9Z"/><path class="cls-3" d="M68.06,675.9c3.47-9.55,1.12-19.49,2-29.22a74.52,74.52,0,0,0-.08-25.8c1.4-32.34.68-64.71,1-97.06,1.94-3.16.57-6.65,1-10,2.21,3,.28,6.72,1.71,10,.85,1.92.57,2.92,3.4,1.79,3.56-1.42,5.62-3.87,7.65-6.68.06,3.12.3,6.25.13,9.36-.35,6.19-1.77,12.36.09,18.53a3.06,3.06,0,0,0-1,2.7q.09,30.72.19,61.44c0,1.24.11,2.49.17,3.73l-.21,5.06c0,5.47-.27,11-.08,16.41.11,3.21-1.08,6.6,1,9.63v2a15.56,15.56,0,0,0-.12,12v3c-1.28,1.37-1.38,2.7.12,4v2c-1.42,1.32-1.41,2.65,0,4l.07,11.11-.21,5c-2.53,1.75-2.77-.87-3.87-2C77,682.83,74.37,677.21,68.06,675.9Z"/><path class="cls-10" d="M84.68,519c-2,2.81-4.09,5.26-7.65,6.68-2.83,1.13-2.55.13-3.4-1.79-1.43-3.27.5-7-1.71-10a2.09,2.09,0,0,0-.92-2V507.8c2.57-3.83,1.75-7.92,1-12,1.71-1.65.92-3.78.92-5.67q.12-46.63.1-93.27c4.55,1.4,8.3-.41,11.87-3,0,.31.08.62.11.94l-.11,51.1v6q0,15.53.07,31.06c-1,5.38-1.79,10.89-.84,16.25C85.3,505.82,84.75,512.38,84.68,519Z"/><path class="cls-5" d="M71.37,340.84V339c1.79-.71,1.73-1.41,0-2.09V334c4.68-3.18.44-9.23,4.06-12.77a2.09,2.09,0,0,0-.6-.72c-2.75-1.34-1.75-3.7-2-6-.44-4.9,1.79-10.09-1.42-14.7l-.18-3.85c.62-.12,1.31-.27,1.31-1s-.7-.9-1.32-1V289c.62-.12,1.32-.26,1.31-1.05s-.73-.89-1.35-1V283c2.62-1.72,2.68-3.4-.06-5.05V274c2.79-2,2.84-4.06,0-6.05V266c1-.19,1.81-.52,1.66-1.75-.11-1-.89-1.13-1.65-1.3,0-3.33.06-6.65.08-10,.51.36,1.32.62,1.48,1.1,1.14,3.47,1.11,3.5,3.68,1.75,1.29-.88,1.71.47,2.39.95,3.46,2.37,5.21,1.6,5.2-2.68A2.32,2.32,0,0,1,85,252q0,21.61-.07,43.24c0,4.91,1.75,9.77.24,14.69L84.84,324c-2.32,4-1.44,8,.07,11.92v4c-2.85,2-2.31,4.45-1,7v.94c-1,.6-.93,1.63-1.12,2.59-.3,1.56-1.21,3-2.78,3-2.08.08-2.38-2-2.9-3.46-.93-2.65.3-5,1.73-7.69Z"/><path class="cls-8" d="M89.89,86c-.63,5.66-2.17,11.2-2,17-3.81,2.45-1.79,6.48-2.36,9.74-.15.83-2,3.87,1.36,4.24v2c-2.49,2.38-3.13,14.72-1,19v2c-1.46.08-1.76,1-2.07,2.29-.7,2.83-2.64,3.71-6.12,3.11,2.52-1.71,3.72-2.84.3-4.11-2-.73-3.76-1.93-6-1.85C71.53,119.22,71.86,99,75,79c2.31.18,4,2.4,6.5,1.92,2.14-.41,4.93-2.23,5.94.87s-2.75,1.71-4,2.92c-.73.7-1.83,1.23-1.27,2.3.68,1.32,1.65.42,2.41-.15C86.23,85.59,88.08,86.1,89.89,86Z"/><path class="cls-10" d="M68.06,675.9c6.31,1.29,9,6.91,13,11,1.1,1.11,1.34,3.73,3.87,2,3.06-1,2.63-3.71,3.06-6h0c1.78-2,1.84-4.76,2.91-7.08,4.1.53,2.14,5.43,5,6.89,1,1.57,2.32,2.14,4.07,1.17,6.87,2.41,13.38,6.08,21,6,1.71,0,2.21,1.93,3.74,2.14l.18.45-5.8.61c-1.24-1.74-1.75-.86-2.1.59-7.24.58-14.47,1.29-21.72,1.73-15.38.9-30.38-3.59-45.64-2.86-.2,0-.43-.44-.65-.67,1.35-.19,2.56-.59,3-2.11h-.07c.86,0,1.82.19,2.1-1C58.78,684.64,64.89,681.84,68.06,675.9Zm11.32,14.19c-1.17-1.47-2.08-3.26-4.36-3-.28,0-.77.84-.67,1.06,1,2.2,3.12,1.75,5,2Z"/><path class="cls-11" d="M71.37,340.84l7.5,1.5c-1.43,2.65-2.66,5-1.73,7.69.52,1.46.82,3.54,2.9,3.46,1.57-.06,2.48-1.46,2.78-3,.19-1,.13-2,1.12-2.59,1.48,1.32.92,3.08.93,4.67.07,7.44,0,14.89.06,22.33v4c0,1,0,2,.07,3l-.18,12c-3.57,2.56-7.32,4.37-11.87,3l-1.14-1.16a.58.58,0,0,1,.1-.51c-.06-.43-.12-.86-.19-1.28,1.89-2.83,1.72-3.82-.68-4.13a16.61,16.61,0,0,1,.07-1.87c2.51-3.49,2.55-9,.1-12.13V371c.63-.18,1.38-.35,1.29-1.18s-.9-.78-1.52-.91Q71.15,354.9,71.37,340.84Z"/><path class="cls-6" d="M85,251.9A2.32,2.32,0,0,0,84,254c0,4.28-1.74,5-5.2,2.68-.68-.48-1.1-1.83-2.39-.95-2.57,1.75-2.54,1.72-3.68-1.75-.16-.48-1-.74-1.48-1.1v-2c3.91-1.8.22-5.85,2.57-8.35,1.17.91,2.43,3.55,4,.62.61-1.18,2.87-2.35,1.44-3.71-1.75-1.66-3.94-.81-5.34,1-2.16-2.43,1.13-6.19-2.71-7.63-.08-18.33-.62-36.66.3-55,3.9,1.58.74,4.76,1.59,7v21c1.84,4.55-4.19,11.23,4.39,14.4,1.59.59,3.44,1.54,5.06,1.34,2.26-.29,1.32-2.59,1.52-4.1s-.52-3.34,1-4.63c.36,6.92-.15,13.83.53,20.78C86,239.73,85.17,245.9,85,251.9Z"/><path class="cls-9" d="M72,139.41c2.23-.08,4,1.12,6,1.85,3.42,1.27,2.22,2.4-.3,4.11,3.48.6,5.42-.28,6.12-3.11.31-1.25.61-2.21,2.07-2.29q0,13.5,0,27c-1.63.65-3.29,1.25-4.89,2-3,1.36-6,.26-9,0Q72,154.18,72,139.41Z"/><path class="cls-4" d="M89.89,86c-1.77.07-3.62-.44-5.23.79-.76.57-1.73,1.47-2.41.15-.56-1.07.54-1.6,1.27-2.3,1.25-1.21,5,.27,4-2.92s-3.8-1.28-5.94-.87c-2.47.48-4.19-1.74-6.5-1.92a140.6,140.6,0,0,1,4.74-28c1.32,1.86,2.85,3.6,1.16,6.11a2.38,2.38,0,0,0,.6,3.31l.19.12c1.17.6,2.23-.73,2.63-1.72,1.34-3.36,2.48-3.26,3.68,0,.53,1.43,2.06.86,2.89,1.52,1.36,1.08,1.21,2.49-.42,2.94-4.34,1.19-3.23,3.72-1.13,5.62,2.91,2.6,3.12,4.5-.32,6.48-.5.29-.93.78-.53,1.08C92.26,79.2,89.65,82.8,89.89,86Z"/><path class="cls-7" d="M72,169c3,.24,6,1.34,9,0,1.6-.72,3.26-1.32,4.9-2A126,126,0,0,1,85,188c-1.83-1.8-3.66-3.59-6.61-3.62.19,1.45,1.73,2.84-.35,3.83-2.29,1.1-1.88-.86-2.23-1.93-.48-1.49-1.71-1.25-2.83-1.31-.85-2.27,2.31-5.45-1.59-7C70.89,174.9,70.44,171.9,72,169Z"/><path class="cls-11" d="M71.38,299.81c3.21,4.61,1,9.8,1.42,14.7.21,2.26-.79,4.62,2,6a2.09,2.09,0,0,1,.6.72c-3.62,3.54.62,9.59-4.06,12.77A333.24,333.24,0,0,1,71.38,299.81Z"/><path class="cls-5" d="M71.06,232.9c3.84,1.44.55,5.2,2.71,7.63,1.4-1.86,3.59-2.71,5.34-1,1.43,1.36-.83,2.53-1.44,3.71-1.52,2.93-2.78.29-4-.62-2.35,2.5,1.34,6.55-2.57,8.35Z"/><path class="cls-6" d="M71,462.9v-37h.82l.06,37Z"/><path class="cls-7" d="M71.79,425.9H71c0-9-.09-18.1,0-27.15,0-1.16-.6-2.71,1-3.52a.58.58,0,0,0-.1.51Z"/><path class="cls-5" d="M71,462.9h.88v29H71Z"/><path class="cls-11" d="M70,620.9a74.52,74.52,0,0,1,.08,25.8Q70,633.8,70,620.9Z"/><path class="cls-3" d="M71.22,375.81c2.45,3.14,2.41,8.64-.1,12.13Q71.18,381.9,71.22,375.81Z"/><path class="cls-11" d="M71,491.9h.88v4c.78,4.1,1.6,8.19-1,12Q71,499.91,71,491.9Z"/><path class="cls-11" d="M71,511.9a2.09,2.09,0,0,1,.92,2c-.41,3.32,1,6.81-1,10Z"/><path class="cls-11" d="M71.09,267.9c2.89,2,2.84,4,0,6.05C71.12,271.9,71.1,269.9,71.09,267.9Z"/><path class="cls-11" d="M71.09,277.9c2.74,1.65,2.68,3.33.06,5.05Z"/><path class="cls-3" d="M71.05,389.81c2.4.31,2.57,1.3.68,4.13C70.12,392.79,71.06,391.22,71.05,389.81Z"/><path class="cls-11" d="M71.09,262.9c.76.17,1.54.34,1.65,1.3.15,1.23-.68,1.56-1.66,1.75C71.09,264.9,71.09,263.9,71.09,262.9Z"/><path class="cls-11" d="M71.33,336.9c1.75.68,1.81,1.38,0,2.09C71.34,338.27,71.34,337.57,71.33,336.9Z"/><path class="cls-2" d="M51.94,689.76c-.4,1.52-1.61,1.92-3,2.11a1,1,0,0,1-.11-.82Z"/><path class="cls-3" d="M70.94,368.9c.62.13,1.42.1,1.52.91s-.66,1-1.29,1.18C71.1,370.3,71,369.6,70.94,368.9Z"/><path class="cls-11" d="M71.15,286.9c.62.12,1.33.24,1.35,1s-.69.93-1.31,1.05C71.17,288.27,71.16,287.59,71.15,286.9Z"/><path class="cls-11" d="M71.19,293.9c.62.13,1.31.26,1.32,1s-.69.92-1.31,1C71.2,295.27,71.19,294.58,71.19,293.9Z"/><path class="cls-2" d="M54,688.8c-.28,1.2-1.24,1-2.1,1a1.64,1.64,0,0,1,2.09-1Z"/><path class="cls-10" d="M98.73,882.68c-4.43-2.06-9.45.2-13.89-1.87-4.57-2.56-8.37-5.73-8.91-11.45,1.46-5.85.82-12.8,8.65-15.2a4.18,4.18,0,0,0,2.89-4.2l1.23-4.29.42-1.8c1.9-1.6.45-5.77,4.43-5.76.89,2.76.45,6,2.84,8.23.71,2.4-.16,5.53,2.42,7a32.37,32.37,0,0,1,7.76,6.62c1.27,1.44,2.52,2.21,3.47-.3a4.15,4.15,0,0,0,2.33.33c2.17-.47,4.86,1.56,5,2.28.66,2.76-2.37,2.46-4,3.2-1,.46-2.47.33-2.86,1.64C108.56,873.9,103.73,878.32,98.73,882.68Zm-.84-11.84c.76,0,1-.37.86-1.05-.47-2.62,2.25-2.78,3.85-4.38-3.48-.74-6.12-1.81-3.88-5.87-10.4,2.65-3.26-6.13-6.8-8.08-3.43,1.24,2.67,10.86-6.35,7.88,1,2.37,1.36,4.26-1.15,5.38-.68.3-2.07.85-.94,1.39,5,2.41-.53,4.43,0,7.13,5.44-3.38,5,.77,4.82,5.85,2.75-5.11,5-6.36,7.2-1.9C97.37,875.27,94.09,871.82,97.89,870.84Z"/><path class="cls-12" d="M79.19,796.9q-.07-6.06-.17-12.13c2.57-1.74,5.06-1.62,8.16-.92,5.41,1.22,11,3.32,16.67,1h.9c2.4,2.67-.4,5.3,0,7.95-.84-.12-1.28-2.29-2.19-.89-1.8,2.77-4.41,2-6.7,1.81-4.06-.28-8.09-1-13-1.72a7.26,7.26,0,0,0,5.65,2.38c5.5.32,11.24,3.81,16.51-.78,1,.47.84,1.36.85,2.19-1.93,1.11-.59,3.55-2.83,5.23-5.76,4.3-11.27,1.7-16.85.8A8.84,8.84,0,0,1,79.19,796.9Zm2.26-5.62c-.16-.25-.27-.58-.49-.72s-.46.1-.69.16c.12.26.18.63.39.75S81.17,791.36,81.45,791.28Z"/><path class="cls-12" d="M79.76,729.73c-.2-3-1.32-6-.26-9,6.64,4.42,14.09,5.44,22.94,6-2.09-2.52-3.79-3.29-5.55-2.86-2.91.71-5.35-.88-8-1.16-2.22-.23-4-1.3-2-3.94,5.59-3.11,11.84-3.27,18-4-.3,3.24.79,6.3-1.39,9.83-1,1.68.63,6.62.47,10.13A58,58,0,0,1,79.76,729.73Z"/><path class="cls-12" d="M79.94,769.81l-.1-1h5.42c-.45-2-1.79-3.31-1.33-5,5.82-.28,11.48,2.25,17.37,1.15-4.72-1.64-9.85-1-14.43-3.08,2.94-3.12,5.11-7.21,9.93-8l9-1.07c-.15,3.91,1.14,7.69-1.49,11.73-.93,1.42.24,6.08.72,9.22a.84.84,0,0,0-.49.16c-8,.15-15.82-1.52-23.63-3.11h0Z"/><path class="cls-13" d="M79.19,796.9a8.84,8.84,0,0,0,7,4.93c5.58.9,11.09,3.5,16.85-.8,2.24-1.68.9-4.12,2.83-5.23.87,3-.25,5.93-.39,8.9-3.11,0-6.22.06-9.33.15-2.55.07-2.78,2.24-2.7,3.87s2,1.33,2.74.73c4.68-3.64,5.28-.41,5.7,3.25a2.17,2.17,0,0,1-1,2.09c-2.21-2.46-6.12.72-8-2.27-3.31-5.2-5-1.74-6.83,1.13l-1.07.09c-.38-.24-.75-.48-1.14-.7a2.42,2.42,0,0,0-.27.36l1.29.48c.83,1.42,3.76,2.55,3.47,2.7-2.68,1.46-1,5.14-3.58,6.44-2.57.36-4.36-1.53-6.55-2.3.15-7.39,1.24-14.78.14-22.19C78.24,798,78.89,797.45,79.19,796.9Z"/><path class="cls-1" d="M105.79,752.8l-9,1.07c-6.34-.28-12.56-2.76-19-1-1.82-2.91,1.48-5.26.71-8.64-.71-3.08.07-6.85-1.14-10.25-.79-2.24.9-3.23,2.4-4.27a58,58,0,0,0,24.13,5.08c.59.09,1.13.23,1,1L97,736c-1.34-.21-2.44-.29-3.2,1.35a10.36,10.36,0,0,1-5.41,5.14c1.77,2.11,3.85,1,5.7,1.13a5.13,5.13,0,0,0,3.72,1.31l-1,1.06a3.42,3.42,0,0,0-2.62,1.1c-1,1-2.63,1.92-2,3.58.64,1.82,2.52.89,3.87,1.13,3.3.59,6.38-1.1,9.64-.94Zm-23.21-8.9c2,2.26,1.36,4.8,2,5.76,1.51,2.23,4.66,1.68,4.89-1.07S86.62,744.69,82.58,743.9Zm-1.12,4.46c-.09.28-.31.61-.22.78s.47.27.72.4c.08-.24.3-.56.21-.71s-.46-.31-.71-.46Z"/><path class="cls-12" d="M93.55,838.11c-4,0-2.53,4.16-4.43,5.76l-9.34-3.13-.78-9h1.89c2.2,3.85,6.31,2.85,9.88,5-.56-3.36-3-2.56-3.9-4-.66-3-.25-6.3-1.94-9.12,7,.23,13.91,2.49,20.87.08,1.64,4.36-1.24,8-1.93,12-2-2.49-8.14-1.38-9.85,1.81A2.77,2.77,0,0,1,93.55,838.11Z"/><path class="cls-1" d="M105.89,823.81c-7,2.41-13.91.15-20.87-.07-.08-.24-.16-.48-.25-.72,2.53-1.3.9-5,3.58-6.44.29-.15-2.64-1.28-3.47-2.7l.12-.14,1.06-.08c5,.4,9.72,3.31,14.87,1.13a2.17,2.17,0,0,0,1-2.09L103,814C106.42,816.52,105.81,820.26,105.89,823.81Z"/><path class="cls-13" d="M110,859.71c-1,2.51-2.2,1.74-3.47.3a32.37,32.37,0,0,0-7.76-6.62c-2.58-1.52-1.71-4.65-2.41-7,.55-1.93,3.27-1.91,3.61-3.48.3-1.37-1.21-3.46,1.42-3.61S102,842,103.34,843c.86-.44.46-2,1.7-2,0,4.54.07,9.11,2.94,12.91C109.36,855.62,108.18,858.16,110,859.71Z"/><path class="cls-4" d="M112.79,696h14.76c4.66,0,5.32,4.93,8.44,6.84a7.79,7.79,0,0,1-.13,1c-7.36-.07-14.58-1.53-21.86-2.35C113.6,699.63,113.19,697.81,112.79,696Zm12.41,4.17c-.13,0-.28-.17-.39-.14-.45.12-.47.34,0,.54a.52.52,0,0,0,.4-.08S125.19,700.26,125.2,700.15Z"/><path class="cls-12" d="M103,814l-1.09-1.27c-.42-3.66-1-6.89-5.7-3.25-.77.6-2.65.82-2.74-.73s.15-3.8,2.7-3.87c3.11-.09,6.22-.11,9.33-.15C105.76,808.09,108.27,812.08,103,814Z"/><path class="cls-2" d="M97,736l7.87-.18c-.56,2.8,1.93,6.62-2.7,8.06l-4.36,1a5.13,5.13,0,0,1-3.72-1.29c2.22-.82,4.54-1.49,2.91-4.78C96.64,738.08,97,737,97,736Z"/><path class="cls-12" d="M105.71,750.84c-3.26-.16-6.34,1.53-9.64.94-1.35-.24-3.23.69-3.87-1.13-.59-1.66,1.06-2.54,2-3.58a3.42,3.42,0,0,1,2.62-1.1c2.4,1.22,4.78,1.6,7.08-.26A5.32,5.32,0,0,1,105.71,750.84Z"/><path class="cls-12" d="M105,840.9c-1.24.09-.84,1.6-1.7,2-1.32-.93.76-3.83-1.91-3.67s-1.12,2.24-1.42,3.61c-.34,1.57-3.06,1.55-3.61,3.48-2.4-2.25-2-5.47-2.85-8.23.18-.17.35-.34.51-.52,3.41-1.4,7-.45,10.51-.89A6.34,6.34,0,0,1,105,840.9Z"/><path class="cls-12" d="M101.08,705c-4.62-2.73-10.28-2-15.74-4.83h21.07c-1.15,1.41-3,2.44-2.53,4.7Z"/><path class="cls-13" d="M164.81,704.7c.7-5.13-2-8-7-9.44,4.38-2.06,9.74-.15,9.74,3.56,0,3.41,2.11,3.88,4.19,4.91A10.59,10.59,0,0,1,164.81,704.7Z"/><path class="cls-2" d="M104.75,784.9h-.9c-1.26-1.94-3.27-.7-4.88-1.15-.44-3,3.06-5.42,1-8.56,1.46-.58,3.36.49,4.51-1.22a.84.84,0,0,1,.49-.16Z"/><path class="cls-13" d="M104.89,714.83c-6.13.69-12.38.85-18,4-.88-2.66-.7-4.52,2.89-4a2.13,2.13,0,0,0,2.12-1c3.29-1.09,7,1.25,10.11-1.14l2.7.19Z"/><path class="cls-1" d="M105,793.61c-5.27,4.59-11,1.1-16.51.78A7.31,7.31,0,0,1,82.89,792c4.88.68,8.91,1.44,13,1.72,2.29.15,4.9,1,6.7-1.81.91-1.4,1.35.77,2.19.89A.94.94,0,0,1,105,793.61Z"/><path class="cls-13" d="M153.89,699.9c-.43,3,.77,4.18,3.82,4,1.69-.11,3.62-.67,5.11.86a41.25,41.25,0,0,1-12-.08c2.08-2.63-1.19-4.49-1-6.85C151.59,697.72,152.48,699.29,153.89,699.9Z"/><path class="cls-12" d="M178.89,701c0-2.61-.64-5.28.45-7.77.43-1,1.27-2.26,2.56-1.87s.75,1.59.39,2.48c-.71,1.76-.3,2.87,1.68,3.16C183.14,699.4,181.28,700.53,178.89,701Z"/><path class="cls-2" d="M104.7,712.9l-2.7-.19c1.77-2.84-1.28-5-1-7.7l.09,0,2.8-.12C107.52,707.17,104.12,710.22,104.7,712.9Z"/><path class="cls-13" d="M135.89,703.81a6.35,6.35,0,0,1,.13-1c2.61-.41,5.45,1.08,7.86-1h0c1.75.34,3.57.59,4,2.8Z"/><path class="cls-12" d="M174.89,703c-.28-2.37.59-4.94-1.63-7a1.88,1.88,0,0,1,.27-2.65l0,0a2.55,2.55,0,0,1,1.82-.4c1.23.16,1.2,1.26,1.49,2.22.7,2.31-2.28,4.77.36,6.93A2.28,2.28,0,0,1,174.89,703Z"/><path class="cls-1" d="M104.57,836.7c-3.49.44-7.1-.51-10.51.89,1.71-3.19,7.81-4.3,9.84-1.81Z"/><path class="cls-6" d="M112.79,696c.4,1.83.81,3.65,1.21,5.48-1.6.86-2.81-.48-4.21-.75C110.26,698.79,107.32,694.72,112.79,696Z"/><path class="cls-13" d="M103.94,745.71c-2.3,1.86-4.68,1.48-7.08.26l1-1.06,4.36-1Z"/><path class="cls-8" d="M35.94,694.9l5,.14c0,1.46,0,3.21,1.84,3.34s2.58-1.58,3.32-3l2.74-.38c2.89,2.48,9.76,2.61,13.18.25l9.81.42c4,.17,5,2.11,3.28,5.65-17.83,2.25-35.62,5-53.69,3.5-1.65-.14-3.31-.08-4.68-1.24.08-.58.16-1.16.23-1.74.66-1.49,1.25-3.05,3.2-3.24,3.84-.37,7.16-2.36,10.78-3.45.29,1.31-1.82,2-.91,3.56C33.09,699.07,35.36,698.33,35.94,694.9Z"/><path class="cls-12" d="M100,775.13c2,3.14-1.49,5.61-1,8.56-6.82,0-13.32-1.79-19.75-3.85.14-3-.59-6.1.54-9.06H81c1,2.38,3.45,2.36,5.42,2.91C90.79,775,95.44,774.8,100,775.13Z"/><path class="cls-13" d="M78.89,700.78c3.31-1.87,3.54.58,3.52,2.73,0,1.38-1.36,3.37.45,3.86,3,.82.81-1.9,1.42-2.8,1-1.5,2.48-1.21,4-.83,1.84.48,4-.64,5.6,1.07,2.11,5-1.34,6.48-4.89,7.94-3.7,2.62-5.88-2-9-1.91C79.32,707.51,77.89,704.27,78.89,700.78Z"/><path class="cls-1" d="M80,710.84c3.16-.06,5.34,4.53,9,1.91l2.93,1.08a2.13,2.13,0,0,1-2.12,1c-3.59-.55-3.77,1.31-2.89,4-2,2.64-.26,3.71,2,3.94,2.7.28,5.14,1.87,8,1.16,1.76-.43,3.46.34,5.55,2.86-8.85-.55-16.3-1.57-22.94-6A16.58,16.58,0,0,1,80,710.84Zm4,10,.38.2-.45-.14c-.12-.75-.11-1.61-1.22-1.56a.43.43,0,0,0-.32.32c0,1.1.89,1,1.6,1.18Z"/><path class="cls-2" d="M77.79,752.9c6.45-1.78,12.67.7,19,1-4.82.77-7,4.86-9.93,8l-7.41-1C78.3,758.34,79.32,755.34,77.79,752.9Z"/><path class="cls-13" d="M87.47,850a4.18,4.18,0,0,1-2.89,4.2c-7.83,2.4-7.19,9.35-8.65,15.2-1.26-.77-1.13-2.18-1.52-3.35.92-3.88.27-6.12-4.38-4.24,5-2.45,5.81-8.1,9-11.92C81.89,851.11,84.66,850.14,87.47,850Z"/><path class="cls-2" d="M17,701.9c-.07.58-.15,1.16-.23,1.74a15.11,15.11,0,0,1-9-3.64c2.34-2.46.74-5.48,1.18-8.2,2.39-2.27,4.78,0,7.16,0-.09.32-.17.64-.26,1C15.45,697,15.89,700.76,17,701.9Z"/><path class="cls-2" d="M84.72,823c.09.24.17.48.25.72,1.69,2.81,1.28,6.07,1.94,9.11l-6-1.09h0A2.72,2.72,0,0,0,79,829.82l-.82-9.11C80.36,821.49,82.15,823.38,84.72,823Z"/><path class="cls-1" d="M79.22,779.84c6.43,2.06,12.93,3.81,19.75,3.85,1.61.45,3.62-.79,4.88,1.15-5.7,2.33-11.26.23-16.67-1-3.1-.7-5.59-.82-8.16.92C77.59,783.07,79.89,781.52,79.22,779.84Z"/><path class="cls-2" d="M87.47,850c-2.81.18-5.63,1.15-8.42-.11.3-2,.61-4.06.91-6.08,3.08-.11,5.59,2.36,8.74,1.9Z"/><path class="cls-1" d="M79.46,760.9l7.43,1c4.58,2.09,9.71,1.44,14.43,3.08-5.89,1.1-11.55-1.43-17.37-1.15h0l-1-1-2.22-.9-1.16.15Z"/><path class="cls-10" d="M70,861.77c4.65-1.88,5.3.36,4.38,4.24L66,863.71C66.89,861.05,68.74,862.17,70,861.77Z"/><path class="cls-13" d="M80.71,761.9l2.22.9,1,1h0c-.46,1.74.88,3,1.33,5H79.89c-1.3-2-.49-4.11-.29-6.18Z"/><path class="cls-1" d="M88.7,845.67c-3.15.46-5.66-2-8.74-1.9a.68.68,0,0,1-.26-.7l-.36-1.73a.7.7,0,0,1,.44-.6l9.34,3.16Z"/><path class="cls-12" d="M9,691.78c-.44,2.72,1.16,5.74-1.18,8.2l-.88-.93q-.45-2.64-.92-5.28C5.5,690.9,7.39,691.59,9,691.78Z"/><path class="cls-1" d="M79,829.83a2.72,2.72,0,0,1,1.9,1.94H79C79,831.13,79,830.48,79,829.83Z"/><path class="cls-1" d="M80.89,770.82H79.73a1.92,1.92,0,0,1,.18-1Z"/><path class="cls-2" d="M80.71,761.9l-1.16.72a.35.35,0,0,1-.08-.49l.08-.08Z"/><path class="cls-2" d="M79.34,841.34l.36,1.73C79,842.62,79,842,79.34,841.34Z"/><path class="cls-12" d="M91.89,713.83,89,712.75c3.55-1.46,7-3,4.89-7.94l7.1.18c-.27,2.65,2.78,4.86,1,7.7C98.89,715.08,95.18,712.74,91.89,713.83Z"/><path class="cls-2" d="M62.05,695.29c-3.42,2.36-10.29,2.23-13.18-.25A69.11,69.11,0,0,1,62.05,695.29Z"/><path class="cls-9" d="M35.94,694.9c-.58,3.39-2.85,4.13-5.87,3.81-.91-1.56,1.2-2.25.91-3.56C32.61,694.71,34.19,693.08,35.94,694.9Z"/><path class="cls-12" d="M153.89,699.9c-1.39-.6-2.28-2.17-4-2.08-1.24-1.21-1.47-2.79.53-2.67C152.82,695.29,155.25,696.45,153.89,699.9Z"/><path class="cls-9" d="M46.13,695.42c-.74,1.42-1.49,3.13-3.32,3S41,696.54,41,695.08A10.38,10.38,0,0,1,46.13,695.42Z"/><path class="cls-13" d="M29.06,693.26c-2.61.62-4.14,1-5.46-1Z"/><path class="cls-13" d="M147.09,695.17c-.36.26-.57.54-.79.56-.54,0-1.22.29-1.47-.51a1.8,1.8,0,0,1,.8-.32A7.36,7.36,0,0,1,147.09,695.17Z"/><path class="cls-5" d="M116.89,693.64c.35-1.45.86-2.33,2.1-.59C118.43,693.9,117.63,693.76,116.89,693.64Z"/><path class="cls-13" d="M143.89,701.82c-.55-.16-1.49.2-1.29-1a.53.53,0,0,1,.34-.33c1.14-.19.8.73.94,1.29Z"/><path class="cls-13" d="M15.89,692.73c.09-.32.17-.64.26-1,.71.13,1.59-.26,2,.69Z"/><path class="cls-4" d="M85,188a126,126,0,0,0,.89-21V138c-.6-6.37,1.32-12.61,1-19v-2c.07-4,0-8,1-12,1.94,1,3,.81,3-1.73,0-1.63-.83-3.85,2-4.26,2.11,3.89-.32,7.74-.14,11.66.59,12.62,1.68,25.35.66,37.89-1,12.06.55,24-.45,36-.28,3.42.53,6.94.84,10.42v2c-1.94,3.21-.61,6.7-.85,10.06l0,4.85c0,1.35.07,2.71.11,4.07s0,2.58,0,3.87c.2,2.71-1,5.56.78,8.11l.51,2c-.11.34-.21.68-.31,1-2.88-3.09-5.92-5.72-4.87-11,.83-4.22-.11-8.8-.19-13.22-.07-3.64-1.47-2.39-3-.88,0-1.31-.07-2.63-.1-4C85.57,197.32,86.8,192.57,85,188Z"/><path class="cls-9" d="M93.83,195c-.31-3.48-1.12-7-.84-10.42,1-12-.52-24,.45-36,1-12.54-.07-25.27-.66-37.89-.18-3.92,2.25-7.77.14-11.66,2.17-6.93-.58-14.16,1.13-21.16A27.52,27.52,0,0,1,96.94,90c1,9.67,2.27,19.32,2.85,29,.81,13.39-.12,26.8.85,40.23.83,11.5-.41,23.15-.73,34.73-.68,1-1.35,2-2,3h0C97.34,194.65,97.11,191.68,93.83,195Z"/><path class="cls-9" d="M87.89,105c-1.06,3.94-.94,8-1,12-3.39-.37-1.51-3.41-1.36-4.24.57-3.26-1.45-7.29,2.36-9.74Z"/><path class="cls-4" d="M91.28,25.26c.12-.27.18-.7.38-.78a.85.85,0,0,1,.77.33.85.85,0,0,1-.34.77C91.89,25.66,91.56,25.39,91.28,25.26Z"/><path class="cls-7" d="M101.94,440.9h1c.12,2.15.18,4.25-2.94,4,.4-3.39-.46-6.73-.44-10.15,0-6.6,1.79-13.35-.51-19.9,1.49-23.65.65-47.33,1-71a3.38,3.38,0,0,0,.14-4.78,2.39,2.39,0,0,0-.23-.22q0-9.47.08-18.93l2.92.06c0,10.58-1.14,21.16-.11,31.76a64.22,64.22,0,0,1-.61,13.36,67.69,67.69,0,0,0,.7,18.8,11.74,11.74,0,0,0,0,10c-.29,2-.57,4-.86,5.93a1.89,1.89,0,0,0,.84,2.07v2A1.93,1.93,0,0,0,102,406c-.37,2.07.54,4,.87,5.91l-1.27.54,1.29.5h0c0,2.25-1.32,4.51.55,6.75.58.7-.78,1.06-1.53,1.23A39.22,39.22,0,0,0,101.94,440.9Z"/><path class="cls-8" d="M102.83,320l-2.94-.07c0-.32-.06-.64-.08-1v-89c.42-2.32-.8-4.84.87-7a25.23,25.23,0,0,1,2.21,9.2c0,14,.58,28-.24,41.91-.43,7.3,0,14.62,0,21.81C102.74,303.83,102.18,311.9,102.83,320Z"/><path class="cls-6" d="M100.71,223c-1.67,2.15-.45,4.67-.87,7H94.3l-.51-2c.79-1.63,1.95-3.11,2.07-5l1.32-.52-1.29-.55a3.12,3.12,0,0,0-2.88-2V216c2.67-1.43,2.69-2.78-.11-4.07,0-1.65.07-3.29.1-4.93,3.52-3.08,2-6.58.85-10.06v-2c3.28-3.29,3.51-.32,4.07,2-.08.13-.16.27-.23.41l.22-.42c.67-1,1.34-2,2-3,0,1.65.07,3.3.11,5V215A23.83,23.83,0,0,0,100.71,223Z"/><path class="cls-8" d="M100,215V203.89c5.94,1.77,1.87,6.53,2.76,9.79C103.55,216.54,100.43,213.41,100,215Z"/><path class="cls-8" d="M102.89,393.9a11.74,11.74,0,0,1,0-10C104.54,387.24,106.89,390.57,102.89,393.9Z"/><path class="cls-8" d="M102.83,401.9a1.89,1.89,0,0,1-.84-2.07C103.22,400.14,104.44,400.44,102.83,401.9Z"/><path class="cls-8" d="M100,201V198.9c.69.19,1.65.26,1.4,1.27C101.33,200.54,100.51,200.74,100,201Z"/><path class="cls-8" d="M102,406a1.94,1.94,0,0,1,.91-2.06C104.45,405.38,103.2,405.67,102,406Z"/><path class="cls-8" d="M102.89,412.9l-1.29-.5,1.29-.5Z"/><path class="cls-3" d="M99.89,683.83c-1.75,1-3,.4-4.07-1.17-.65-4.09,1.24-9.33-4.89-11a2.6,2.6,0,0,0,0-.88v-2c-.35-16.64-1.37-33.27-.94-49.92l.17-5.92c3,.86,1.65,3.32,1.66,5,.11,14.27.07,28.53.07,42.8,1.45-9.53,1.57-19.15,1.75-28.66.6-33.11.2-66.23.18-99.34-2.39-9.65.45-19.4-.7-29.13-1-8.23,1.51-16.5.72-24.81a4.05,4.05,0,0,0,.07-5v-2c1-.65,1.06-1.32,0-2v-10h1c1.34,1.64,3.24.73,4.87,1.06l.24-.15v29.08c0,1.66,0,3.32,0,5,.51,10-1.75,19.94-.76,29.95v2.12c-.91,2.73.54,5.28.61,7.94-1.73,4.14-1.13,8.5-.67,12.68a80.18,80.18,0,0,1,.56,9.42A1.9,1.9,0,0,0,99,559c0,1,.07,1.91.11,2.87q-.06,20-.13,40a1.93,1.93,0,0,0,.8,2.08c.39,2.07-.55,4-.82,5.93v2c-.18,3.36,1.45,6.55.84,9.94a3.12,3.12,0,0,0-.92,2.7c0,9.09-.28,18.2.19,27.27.15,3-1.61,6.25.82,9l.06,3a17.64,17.64,0,0,0-.1,13Z"/><path class="cls-10" d="M99.89,660.84c-2.43-2.77-.67-6.06-.82-9-.47-9.07-.18-18.18-.19-27.27a3.12,3.12,0,0,1,.92-2.7A153.1,153.1,0,0,1,99.89,660.84Z"/><path class="cls-10" d="M99.89,676.83a17.64,17.64,0,0,1,.1-13A18.64,18.64,0,0,1,99.89,676.83Z"/><path class="cls-10" d="M99.8,603.9a1.93,1.93,0,0,1-.8-2.08C100.25,602.09,101.42,602.43,99.8,603.9Z"/><path class="cls-10" d="M99,611.9v-2.13c.71.19,1.66.27,1.41,1.28C100.3,611.44,99.47,611.63,99,611.9Z"/><path class="cls-11" d="M99,559a1.91,1.91,0,0,1,.77-2.05C101.43,558.25,100.27,558.62,99,559Z"/><path class="cls-6" d="M105.89,529.9c-1-.18-2.1-.37-1.38-1.76.22-.43,1.26-.93,1.52-.76C107.24,528.18,106,529.05,105.89,529.9Z"/><path class="cls-6" d="M99.27,526.9v-2.12c.86.22,2.31-.21,2.12,1.29C101.26,527,100.06,526.83,99.27,526.9Z"/><path class="cls-7" d="M100,464.9v-4.08c2.46.33,1.41,1.78,1,3Z"/><path class="cls-10" d="M99.76,461c-1.63-.33-3.53.58-4.87-1.06-.59-6,1.25-12.12-1.06-18l-.08-2c1.66-1.19,1.1-3,1.11-4.53.06-5.42.17-10.84,0-16.24-.12-3.14.82-4.72,4.13-4.26,2.3,6.55.54,13.3.51,19.9,0,3.42.84,6.76.44,10.15l-.17-.08c-.63.14-1.42.23-1.41,1.06s.8.9,1.45,1Z"/><path class="cls-11" d="M99.79,446.9c-.65-.1-1.43-.17-1.45-1s.78-.92,1.41-1.06C99.76,445.52,99.78,446.21,99.79,446.9Z"/><path class="cls-5" d="M101.94,440.9a39.18,39.18,0,0,1,0-20Q101.9,430.91,101.94,440.9Z"/><path class="cls-4" d="M108.61,418.31c.28.12.71.18.79.38s-.2.54-.32.82c-.28-.12-.71-.18-.79-.38S108.49,418.59,108.61,418.31Z"/><path class="cls-11" d="M93.8,532.81c0,33.11.42,66.23-.18,99.34-.18,9.51-.3,19.13-1.75,28.66q0-21.4-.07-42.8c0-1.71,1.3-4.17-1.66-5V591.72c-3,4.52-2,8.39-2.23,12.07-.17,3-.1,6.08-3.79,7.21q-.09-30.72-.19-61.44a3.06,3.06,0,0,1,1-2.7c1.59-1.48.94-3.43.95-5.17q0-23.4,0-46.79c.71-.11,1.78,2,1.78.47,0-3.69,1.74-1.87,3.18-1.47v44C92.34,535.66,91.2,533,93.8,532.81Zm-2.32,8a17.31,17.31,0,0,0-.17,8,17.18,17.18,0,0,0,.17-8Z"/><path class="cls-5" d="M90,618.9c-.43,16.65.59,33.28.94,49.92-1,.64-1.11,1.29,0,2a2.6,2.6,0,0,1,0,.88,7.51,7.51,0,0,0-.93,4.12c-2.41,1.85-2.13,4.48-2,7h0l-2.84,1-.25-11a2.47,2.47,0,0,0,.55-3.45,2.39,2.39,0,0,0-.55-.55v-2c1.31-1.37,1.33-2.7-.12-4v-3a16.31,16.31,0,0,0,.12-12v-2c2-8.27.72-16.63.6-25,0-.37-1-.73-1.48-1.09.07-1.69.14-3.37.2-5.06C88.06,613.55,87.25,618.63,90,618.9Z"/><path class="cls-6" d="M85.89,494.9q0,23.4-.07,46.79c0,1.74.64,3.69-.95,5.17-1.86-6.17-.44-12.34-.09-18.53.17-3.11-.07-6.24-.13-9.36.07-6.59.62-13.15-.55-19.77-.95-5.36-.18-10.87.84-16.25C86.89,486.8,85.42,490.9,85.89,494.9Z"/><path class="cls-7" d="M90,618.9c-2.72-.27-1.91-5.35-5.69-4.17,0-1.24-.11-2.49-.16-3.73,3.69-1.13,3.62-4.2,3.79-7.21.2-3.68-.81-7.55,2.23-12.07V613C90.08,615,90,616.9,90,618.9Z"/><path class="cls-11" d="M84.08,619.79c.51.36,1.48.72,1.48,1.09.12,8.32,1.38,16.68-.6,25-2-3-.85-6.42-1-9.63C83.81,630.74,84,625.26,84.08,619.79Z"/><path class="cls-11" d="M85,647.9a16.31,16.31,0,0,1-.12,12A15.56,15.56,0,0,1,85,647.9Z"/><path class="cls-7" d="M85.1,683.9l2.84-1c-.43,2.3,0,5-3.06,6C85,687.21,85,685.55,85.1,683.9Z"/><path class="cls-11" d="M84.89,662.83c1.45,1.29,1.43,2.62.12,4C83.48,665.53,83.58,664.2,84.89,662.83Z"/><path class="cls-11" d="M84.94,668.84a2.47,2.47,0,0,1,.55,3.45,2.39,2.39,0,0,1-.55.55C83.53,671.49,83.52,670.16,84.94,668.84Z"/><path class="cls-5" d="M85.89,494.9c-.5-4,1-8.1-1-11.95q0-15.52-.07-31.06c1.43-1.36,1.41-2.71,0-4.05v-1.91c2.21-3.32,0-7.26,1.29-10.51,1.09-2.67,2.19-4.63.63-7.72-.63-1.25-.22-5.68,4.1-4.8v37c-1,5.62.89,11.75-3,16.87-3.58,3-.9,5.31.77,7.89.87-1,.07-3,2.17-2.76v12c-1.44-.4-3.19-2.22-3.18,1.47C87.7,496.9,86.63,494.79,85.89,494.9Zm2.3-7.33a9.42,9.42,0,0,0-.26,1.59,2.5,2.5,0,0,0,.38.85c.72-.4.54-1.07.47-1.68,0-.21-.26-.43-.56-.76Z"/><path class="cls-6" d="M90.89,422.9c-4.32-.88-4.73,3.55-4.1,4.8,1.56,3.09.46,5.05-.63,7.72-1.27,3.25.93,7.19-1.27,10.48l0-51c2.5-4.16,1.41-8.58,1-12.95,1.61-1.61,1.21-2.58-1-3v-4c2-2.32-.14-6.71,4-8v3c.52,12.71-1,25.48,1.8,38.15C91.78,412.77,90.89,417.9,90.89,422.9Z"/><path class="cls-3" d="M71.94,495.83v-33l-.06-37V395.69L73,396.9q0,46.64-.1,93.27C72.89,492.05,73.65,494.18,71.94,495.83Z"/><path class="cls-9" d="M85.89,381.9c.46,4.37,1.55,8.79-1,13a5.88,5.88,0,0,0-.11-.94q.09-6,.17-12Z"/><path class="cls-6" d="M84.89,447.84c1.44,1.34,1.46,2.69,0,4.05Z"/><path class="cls-8" d="M85.94,205.9c1.52-1.51,2.92-2.76,3,.88.08,4.42,1,9,.19,13.22-1,5.28,2,7.91,4.87,11,0,11.8-.37,23.61.08,35.4.15,4,.28,8.2.14,12.14-.31,8.81-1.88,17.57-.24,26.4l-.09,8h-3c-2.36-3.47-2.29-7.33-1.73-11.25.12-.89,1-2.1-.47-2.41-1.69-.36-1.7,1.13-1.72,2.27v8.39H85.19c1.51-4.92-.27-9.78-.24-14.69.11-14.41.06-28.83.07-43.24.22-6.08,1.06-12.21.48-18.21-.68-7-.17-13.86-.53-20.78A18.92,18.92,0,0,1,85.94,205.9Zm2,78c-1.77,3.5-1.06,7-.33,11.27,2.59-4.9,2.59-4.9.32-11.27A1.53,1.53,0,0,0,88.7,282c0-.11-.25-.17-.38-.25Z"/><path class="cls-9" d="M85.12,309.9h1.77c.86,1.62.89,4.32,4,3h3c1.23.7.92,1.92,1,3a5.7,5.7,0,0,0-.88,4l-1,16.8c0,1.46-.6,3.05.94,4.16v2c-1.26.79-1,2-.9,3.18L93,364.9c-1.2.71-.13,1.41,0,2.11v7.92c-1.76-.08-2.12-1.24-2.09-2.7a2,2,0,0,0-1.64-2.3,2,2,0,0,0-.34,0v-3c2.68-2.56,2.68-11.44,0-14V327H87.44c-.18,5.94-1.31,11.94.45,17.94l-2.92,1-.08-6v-4c0-4,0-7.94-.07-11.92Zm3.55,14.52v-8c-1.64,2.9-2.64,5.21,0,8Z"/><path class="cls-7" d="M88.89,345.9v5c-.55.1-1.43-.06-1.27.81.09.46.83.8,1.28,1.19,2.68,2.56,2.68,11.44,0,14-4.12,1.26-2,5.65-4,8,0-7.44,0-14.89-.06-22.33,0-1.59.55-3.35-.93-4.67V347l1-1,3-1.06ZM87.2,365.58c2.59-3.33,1.3-7.08.91-10.79-1.22,3.47.23,7.24-.9,10.8Z"/><path class="cls-11" d="M84.83,324c0,4,0,8,.07,11.92C83.39,332,82.51,328,84.83,324Z"/><path class="cls-11" d="M85,345.9l-1,1c-1.35-2.57-1.89-5,1-7C84.89,341.9,84.94,343.9,85,345.9Z"/><path class="cls-9" d="M86.89,119c.33,6.36-1.59,12.6-1,19C83.75,133.7,84.39,121.36,86.89,119Z"/><path class="cls-4" d="M90,675.8a7.51,7.51,0,0,1,.93-4.12c6.13,1.65,4.24,6.89,4.89,11-2.82-1.46-.86-6.36-5-6.89A5.67,5.67,0,0,0,90,675.8Z"/><path class="cls-11" d="M79.38,690.11c-1.91-.19-4,.24-5-2-.1-.22.39-1,.67-1.06C77.3,686.9,78.21,688.64,79.38,690.11Z"/><path class="cls-7" d="M90,675.8h.86c-1.07,2.32-1.13,5.06-2.91,7.08C87.89,680.28,87.57,677.65,90,675.8Z"/><path class="cls-7" d="M85.89,381.9H85l-.06-3C87.1,379.33,87.5,380.3,85.89,381.9Z"/><path class="cls-9" d="M85,188c1.83,4.56.6,9.31.87,14-4.52.6-8,4.6-12.91,4V185c1.12.06,2.35-.18,2.83,1.31.35,1.07-.06,3,2.23,1.93,2.08-1,.54-2.38.35-3.83C81.31,184.42,83.14,186.21,85,188Z"/><path class="cls-7" d="M72.89,205.9c4.9.63,8.39-3.37,12.91-4,0,1.32.07,2.64.1,4a18.9,18.9,0,0,0-1,7c-1.52,1.29-.8,3.06-1,4.63s.74,3.81-1.52,4.1c-1.62.2-3.47-.75-5.06-1.34C68.74,217.17,74.77,210.49,72.89,205.9Z"/><path class="cls-1" d="M97.89,870.84c-3.8,1-.52,4.43-2.42,6.35-2.2-4.46-4.45-3.21-7.2,1.9.23-5.08.62-9.23-4.82-5.85-.5-2.7,5-4.72,0-7.13-1.13-.54.26-1.09.94-1.39,2.51-1.12,2.11-3,1.15-5.38,9,3,2.92-6.64,6.35-7.88,3.54,2-3.6,10.73,6.8,8.08-2.24,4.06.4,5.13,3.88,5.87-1.6,1.6-4.32,1.76-3.85,4.38Zm-3.32-8c-1.44.1-1.69,1.3-1.64,2.73,0,.86.23,1.89,1.21,1.72a3.09,3.09,0,0,0,2.53-2.68c.22-1.22-.59-1.71-2.1-1.71Z"/><path class="cls-13" d="M97.89,870.84l.86-1.05C98.89,870.47,98.65,870.9,97.89,870.84Z"/><path class="cls-1" d="M81.44,791.28c-.27.08-.61.29-.78.19s-.27-.49-.39-.75c.23-.06.55-.25.69-.16A3.07,3.07,0,0,1,81.44,791.28Z"/><path class="cls-1" d="M100,775.13c-4.58-.33-9.23-.17-13.7-1.42-2-.55-4.37-.53-5.42-2.91,7.81,1.59,15.6,3.26,23.63,3.11C103.38,775.62,101.48,774.55,100,775.13Z"/><path class="cls-12" d="M100.89,814.79C95.74,817,91,814.06,86,813.66c1.86-2.88,3.53-6.34,6.84-1.14C94.76,815.51,98.67,812.33,100.89,814.79Z"/><path class="cls-1" d="M84.83,813.9l-1.29-.48a2.42,2.42,0,0,1,.27-.36c.39.22.76.46,1.14.7Z"/><path class="cls-12" d="M97,736c0,1-.38,2.08,0,2.84,1.63,3.29-.69,4-2.91,4.78-1.85-.17-3.93,1-5.7-1.13a10.36,10.36,0,0,0,5.41-5.14C94.58,735.71,95.68,735.79,97,736Z"/><path class="cls-13" d="M82.58,743.9c4,.78,7.13,1.8,6.9,4.69s-3.38,3.3-4.89,1.07C83.94,748.71,84.53,746.17,82.58,743.9Z"/><path class="cls-13" d="M81.46,748.37c.25.15.59.25.71.47s-.13.47-.21.71c-.25-.13-.62-.2-.72-.4S81.37,748.65,81.46,748.37Z"/><path class="cls-1" d="M80.89,831.76l6,1.14c.85,1.4,3.34.6,3.9,4C87.24,834.61,83.13,835.61,80.89,831.76Z"/><path class="cls-1" d="M125.2,700.15v.32a.52.52,0,0,1-.4.08c-.42-.2-.4-.42,0-.54C124.89,700,125.07,700.1,125.2,700.15Z"/><path class="cls-13" d="M84,720.84c-.71-.17-1.63-.08-1.57-1.22a.43.43,0,0,1,.32-.32c1.11,0,1.1.81,1.22,1.56Z"/><path class="cls-12" d="M83.89,720.9l.41.18-.38-.2Z"/><path class="cls-12" d="M83.89,763.8l-1-1Z"/><path class="cls-5" d="M94,305c-1.64-8.83-.07-17.59.24-26.4.14-3.94,0-8.1-.14-12.14-.45-11.79-.11-23.6-.08-35.4.1-.33.2-.67.31-1h5.54v73C97.38,302.15,96,304.36,94,305Z"/><path class="cls-9" d="M93.89,197c1.19,3.48,2.67,7-.85,10.06C93.25,203.65,91.89,200.16,93.89,197Z"/><path class="cls-9" d="M95.89,223c-.12,1.91-1.28,3.39-2.07,5-1.8-2.55-.58-5.4-.78-8.11a3.11,3.11,0,0,1,2.85,2Z"/><path class="cls-9" d="M92.89,211.9c2.8,1.29,2.78,2.64.11,4.07C93,214.65,93,213.29,92.89,211.9Z"/><path class="cls-11" d="M93,374.9V367c.69-.21,1.67-.26,1.43-1.28-.09-.37-.93-.56-1.43-.83l.06-18.8c1.9-.6,2.46-1.59.91-3.18v-2c1.43-1.78,1.54-3.26-.93-4.16l1-16.8,5.83-1,.09,1q0,9.46-.08,18.93c-1.73,1.71-.79,3.38.09,5-.3,23.66.54,47.34-1,71-3.31-.46-4.25,1.12-4.13,4.26.19,5.4.08,10.82,0,16.24,0,1.57.55,3.34-1.1,4.53-1.77-9.8-.48-19.65-.6-29.48-.07-4.84,2.39-9.73-.22-14.52v-11A12.21,12.21,0,0,0,93,374.9Z"/><path class="cls-8" d="M99.89,343.9c-.88-1.66-1.82-3.33-.09-5a3.38,3.38,0,0,1,.31,4.77A2.39,2.39,0,0,1,99.89,343.9Z"/><path class="cls-11" d="M94,305c2-.59,3.41-2.8,5.86-2v10.94c-2.48-1.33-2.45,3.41-4.94,2-.08-1.09.23-2.31-1-3Q93.89,308.9,94,305Z"/><path class="cls-5" d="M94.89,315.9c2.49,1.37,2.46-3.37,4.94-2V319L94,320A5.71,5.71,0,0,1,94.89,315.9Z"/><path class="cls-5" d="M95.89,223v-1l1.31.52Z"/><path class="cls-9" d="M97.89,197l-.22.42c.07-.14.15-.28.23-.41Z"/><path class="cls-6" d="M90.89,493.9v-12c.37-2.49-1.69-3.58-2.94-5.13,3.84-5.14,1.94-11.27,2.94-16.87h3v10c-1,.66-1,1.33,0,2v2a3.44,3.44,0,0,0-.21,4.86l.14.14c.79,8.31-1.68,16.58-.72,24.81,1.15,9.73-1.69,19.48.7,29.13-2.6.16-1.46,2.85-2.92,5.07Z"/><path class="cls-11" d="M93.89,459.9h-1c.6-6-1.1-12.1,1-18,2.31,5.89.47,12,1.06,18H93.89Z"/><path class="cls-11" d="M93.82,478.9a3.44,3.44,0,0,1-.07-4.86l.14-.14A4.05,4.05,0,0,1,93.82,478.9Z"/><path class="cls-11" d="M93.89,471.9c-1-.67-1-1.34,0-2C95,470.56,94.89,471.23,93.89,471.9Z"/><path class="cls-7" d="M90.89,670.8c-1.06-.69-.93-1.34,0-2Z"/><path class="cls-7" d="M93.83,441.9c-2,5.9-.35,12-1,18H90.89v-37c0-5,.88-10.13-.18-14.86-2.82-12.67-1.27-25.44-1.82-38.14a2,2,0,0,1,2,2,2,2,0,0,1,0,.35c0,1.46.33,2.62,2.09,2.7a12.19,12.19,0,0,1,0,10c-3.1,2.71-3.1,8.78,0,11,2.61,4.79.15,9.68.22,14.52.12,9.83-1.17,19.68.6,29.48C93.78,440.56,93.81,441.23,93.83,441.9Z"/><path class="cls-6" d="M91.48,540.84a17.31,17.31,0,0,1-.17,8A17.31,17.31,0,0,1,91.48,540.84Z"/><path class="cls-11" d="M88,476.75c1.25,1.55,3.31,2.64,2.94,5.13-2.1-.28-1.3,1.81-2.17,2.76C87.05,482.06,84.37,479.75,88,476.75Z"/><path class="cls-11" d="M88.22,487.57c.3.37.57.55.59.76.07.61.25,1.28-.47,1.68a2.5,2.5,0,0,1-.38-.85A9.42,9.42,0,0,1,88.22,487.57Z"/><path class="cls-7" d="M90.89,312.9c-3.07,1.32-3.1-1.38-4-3v-8.39c0-1.14,0-2.63,1.72-2.27,1.48.31.59,1.52.47,2.41C88.57,305.59,88.5,309.45,90.89,312.9Z"/><path class="cls-7" d="M87.89,283.9c2.27,6.37,2.27,6.37-.32,11.27C86.89,290.9,86.14,287.43,87.89,283.9Z"/><path class="cls-7" d="M87.89,283.9l.38-2.17c.13.08.34.14.38.25A1.54,1.54,0,0,1,87.89,283.9Z"/><path class="cls-6" d="M88.89,345.9l-1-1c-1.76-6-.63-12-.45-17.95h1.45Z"/><path class="cls-7" d="M88.67,324.39c-2.64-2.76-1.64-5.07,0-8Z"/><path class="cls-7" d="M93,336.77c2.47.9,2.36,2.38.93,4.16C92.4,339.82,93,338.23,93,336.77Z"/><path class="cls-7" d="M93.89,342.9c1.55,1.59,1,2.58-.91,3.18C92.89,344.9,92.67,343.69,93.89,342.9Z"/><path class="cls-7" d="M93,364.9c.5.27,1.34.46,1.43.83.24,1-.74,1.07-1.43,1.28C92.83,366.29,91.76,365.59,93,364.9Z"/><path class="cls-6" d="M88.89,352.9c-.45-.39-1.19-.73-1.28-1.19-.16-.87.72-.71,1.27-.81C88.89,351.58,88.89,352.25,88.89,352.9Z"/><path class="cls-6" d="M87.21,365.59c1.13-3.56-.35-7.33.91-10.79C88.51,358.51,89.8,362.26,87.21,365.59Z"/><path class="cls-13" d="M94.57,862.9c1.51,0,2.31.51,2.1,1.77a3.09,3.09,0,0,1-2.53,2.68c-1,.17-1.19-.86-1.21-1.72C92.89,864.18,93.13,863,94.57,862.9Z"/><path class="cls-8" d="M92.94,395.9c-3.09-2.21-3.09-8.28,0-11C92.91,388.57,92.91,392.23,92.94,395.9Z"/></g></g></g></g></svg>